<?xml version="1.0" encoding="UTF-8" standalone="no"?>
<svg width="1440px" height="720px" viewBox="0 0 1440 720" version="1.1" xmlns="http://www.w3.org/2000/svg" xmlns:xlink="http://www.w3.org/1999/xlink" xmlns:sketch="http://www.bohemiancoding.com/sketch/ns">
    <!-- Generator: Sketch 3.2.2 (9983) - http://www.bohemiancoding.com/sketch -->
    <title>Background2</title>
    <desc>Created with Sketch.</desc>
    <defs></defs>
    <g id="Welcome" stroke="none" stroke-width="1" fill="none" fill-rule="evenodd" sketch:type="MSPage">
        <g id="background" sketch:type="MSLayerGroup">
            <rect id="sky" fill="#90CAF9" sketch:type="MSShapeGroup" x="0" y="0" width="1440" height="720"></rect>
            <path d="M1440,663.000342 L1440,606.000684 C1337.98057,614.697823 1251.92288,633.091017 1196.67693,657.17313 L1196.67693,657.17313 C1163.42951,637.066671 1114.66221,624.375 1060.3125,624.375 C990.05552,624.375 929.126907,645.583178 898.992775,676.600861 L898.992775,676.600861 C858.088775,640.798182 768.138308,615.9375 663.75,615.9375 C571.578453,615.9375 490.663119,635.3197 444.828257,664.502606 C402.373059,624.005549 315.467062,596.25 215.15625,596.25 C125.188073,596.25 46.002983,618.577093 -1.13686838e-13,652.398968 L-9.37028233e-14,720 L1440,720 L1440,663.000342 L1440,663.000342 Z" id="grass" fill="#AED581" sketch:type="MSShapeGroup"></path>
        </g>
    </g>
</svg>