<?xml version="1.0" encoding="UTF-8" standalone="no"?>
<svg width="231px" height="175px" viewBox="0 0 231 175" version="1.1" xmlns="http://www.w3.org/2000/svg" xmlns:xlink="http://www.w3.org/1999/xlink" xmlns:sketch="http://www.bohemiancoding.com/sketch/ns">
    <!-- Generator: Sketch 3.2.2 (9983) - http://www.bohemiancoding.com/sketch -->
    <title>Clouds</title>
    <desc>Created with Sketch.</desc>
    <defs></defs>
    <g id="Welcome" stroke="none" stroke-width="1" fill="none" fill-rule="evenodd" sketch:type="MSPage">
        <path d="M148.880468,45.2909931 C142.923237,19.0498689 125.082694,0 104,0 C83.5219154,0 66.1026918,17.972912 59.6611725,43.0513871 C58.7791971,43.017254 57.8919913,43 57,43 C25.5197693,43 0,64.490332 0,91 C0,114.059978 19.3101627,133.321951 45.0563766,137.944563 L45.0563766,137.944563 C50.7261785,159.008271 78.5410376,175 112,175 C149.555363,175 180,154.852814 180,130 C180,129.851417 179.998912,129.703001 179.99674,129.554758 C208.83283,126.50578 231,108.16723 231,86 C231,61.699471 204.360943,42 171.5,42 C163.492191,42 155.853861,43.1698278 148.880468,45.2909931 L148.880468,45.2909931 Z" id="Oval-5" fill="#F5F5F5" sketch:type="MSShapeGroup"></path>
    </g>
</svg>