<?xml version="1.0" encoding="UTF-8" standalone="no"?>
<svg width="297px" height="407px" viewBox="0 0 297 407" version="1.1" xmlns="http://www.w3.org/2000/svg" xmlns:xlink="http://www.w3.org/1999/xlink" xmlns:sketch="http://www.bohemiancoding.com/sketch/ns">
    <!-- Generator: Sketch 3.2.2 (9983) - http://www.bohemiancoding.com/sketch -->
    <title>Dog6</title>
    <desc>Created with Sketch.</desc>
    <defs></defs>
    <g id="Page-1" stroke="none" stroke-width="1" fill="none" fill-rule="evenodd" sketch:type="MSPage">
        <g id="Lala" sketch:type="MSLayerGroup" transform="translate(1.000000, 1.000000)" stroke="#000000" stroke-width="1.00000095">
            <path d="M278.763388,174.690767 C279.49856,173.635232 288.207872,150.174183 290.539207,123.876264 C292.84916,97.8195481 288.812781,68.9687715 282.795614,58.3019832 C275.853101,45.99481 269.075259,33.0024614 252.550992,25.8478511 C248.27112,23.9947696 212.493271,20.2372902 194.675554,36.3654395 C189.433746,41.1101915 182.799269,65.7687542 189.989878,83.8850143 C193.3871,92.4440896 203.259629,101.625155 213.250004,105.164331 C221.978014,108.256304 231.2743,106.474796 230.164417,103.631127 C228.621081,99.6768938 213.854115,92.3925449 211.012814,88.3039638 C209.658193,86.3546885 203.224296,69.2471215 208.292383,59.4484676 C213.012598,50.3223884 229.177196,48.3904352 230.164417,48.5070528 C242.159277,49.9239727 252.550993,70.8000409 252.550993,70.8000409 C252.550993,70.8000409 258.925646,96.292858 255.146212,115.265904 C251.493325,133.603675 243.423217,150.650703 243.423217,150.650703 C239.801126,158.708771 278.626175,174.887773 278.763388,174.690767 Z" id="Tail" fill="#E5C06D" sketch:type="MSShapeGroup"></path>
            <path d="M183.978144,338.015947 C183.803324,322.483984 180.062807,303.902022 177.995347,301.765913 C174.460888,298.114092 163.949894,304.46888 155.275045,304.183884 C154.978668,320.972639 153.351715,321.838195 151.133111,327.209296 C148.914507,332.580398 144.737675,341.578581 153.987558,352.20932 C159.753708,358.836262 167.142959,359.906563 173.075575,359.971046 C176.659881,360.010005 180.080186,359.410874 182.333453,357.173192 C183.480124,351.381567 184.051166,344.503561 183.978144,338.015947 Z" id="Back_foot" fill="#D4B263" sketch:type="MSShapeGroup"></path>
            <path d="M94.6584846,189.806822 C94.6584846,216.441612 91.7165523,215.71918 90.1782349,256.927979 C88.6399174,298.136779 90.7640172,324.747703 90.1782351,341.381185 C89.592453,358.014667 87.2396605,367.338238 85.0210564,372.70934 C82.8024523,378.080442 78.6256206,387.078625 87.875504,397.709364 C97.1253875,408.340103 111.133674,404.324607 111.133674,404.324607 C111.133674,404.324607 120.589157,403.650778 126.571952,397.709367 C132.554747,391.767955 136.291549,385.490605 132.554747,372.709343 C130.775232,366.622736 126.413008,352.137204 126.57195,338.015947 C126.74677,322.483984 130.487288,303.902022 132.554747,301.765913 C136.687579,297.495851 145.131573,303.850639 155.275045,304.183884 C163.949894,304.46888 174.460888,298.114092 177.995347,301.765913 C180.062807,303.902022 183.803324,322.483984 183.978144,338.015947 C184.137086,352.137204 179.774862,366.622736 177.995348,372.709343 C174.258545,385.490605 177.995348,391.767955 183.978143,397.709367 C189.960938,403.650778 199.41642,404.324607 199.41642,404.324607 C199.41642,404.324607 213.424707,408.340103 222.674591,397.709364 C231.924474,387.078625 227.747642,378.080442 225.529038,372.70934 C223.310434,367.338238 220.957642,358.014667 220.371859,341.381185 C220.061539,332.569518 215.202945,299.857704 221.3871,280.316668 C226.876562,262.970759 243.238202,257.943007 246.578085,260.06275 C251.899393,263.440056 250.061027,289.924097 250.090199,292.515904 C250.24914,306.63716 245.886917,321.122693 244.107402,327.209299 C240.3706,339.990562 244.107402,346.267911 250.090197,352.209323 C256.072992,358.150735 265.528475,358.824564 265.528475,358.824564 C265.528475,358.824564 279.536761,362.840059 288.786645,352.20932 C298.036528,341.578581 293.859697,332.580398 291.641092,327.209296 C289.422488,321.838195 287.069696,312.514623 286.483914,295.881142 C285.898132,279.24766 288.443353,226.095596 288.786645,211.427936 C288.897772,206.679867 290.635629,159.731307 278.475899,148.009907 C269.239415,139.106377 256.101518,137.683148 244.75712,138.680634 C231.924679,139.808961 213.396842,145.99428 213.396842,145.99428 C209.958868,165.750493 206.918737,195.082253 199.470721,208.173722 C196.517268,213.365043 186.781846,223.972086 175.645755,229.391235 C174.579252,229.910226 161.668668,236.102631 147.93624,236.76642 C142.173328,237.044983 131.65914,235.209145 123.890649,231.516822 C115.81998,227.680877 110.57139,221.945952 108.988437,220.204312 C101.937447,212.446478 94.7643184,196.355483 94.7582635,191.159366" id="Body" fill="#E5C06D" sketch:type="MSShapeGroup"></path>
            <path d="M94.4083689,190.621388 C98.1302142,198.390557 112.492787,215.441136 130.476027,220.204312 C149.66925,225.287972 172.661325,217.671648 180.549632,212.440048 C186.88323,208.239544 195.916802,199.538876 201.141643,187.710192 C208.521328,171.003089 212.593551,150.199626 212.593551,145.500139 C209.958868,165.750493 206.918737,195.082253 199.470721,208.173722 C196.517268,213.365043 186.781846,223.972086 175.645755,229.391235 C174.579252,229.910226 161.668668,236.102631 147.93624,236.76642 C142.173328,237.044983 131.65914,235.209145 123.890649,231.516822 C115.81998,227.680877 110.57139,221.945952 108.988437,220.204312 C101.937447,212.446478 94.7643184,196.355483 94.7582635,191.159366" id="Collar" fill="#000000" sketch:type="MSShapeGroup"></path>
            <path d="M94.4083689,190.621388 C98.1302142,198.390557 112.492787,215.441136 130.476027,220.204312 C149.66925,225.287972 172.661325,217.671648 180.549632,212.440048 C186.88323,208.239544 195.916802,199.538876 201.141643,187.710192 C208.521328,171.003089 212.593551,150.199626 212.593551,145.500139 C209.345064,142.104799 192.374958,129.365046 175.69258,121.878857 C163.881402,116.57861 151.336387,116.147154 143.814152,117.256397 C134.445433,118.637926 112.254029,128.336534 101.39809,144.935448 C91.2265325,160.48793 91.981484,182.753137 94.423024,191.012937" id="Neck" fill="#E5C06D" sketch:type="MSShapeGroup"></path>
            <path d="M70.0542829,105.688577 C69.405311,98.0875336 69.9198647,82.6911424 74.3193243,68.2891265 C78.1694202,55.6855006 85.5371403,43.9647333 90.5088736,37.2871449 C101.161748,22.9791544 109.216363,17.0605631 118.915419,14.0302868 C128.614475,11.0000105 144.822611,16.3652006 152.803912,16.819352 C160.785212,17.2735034 183.831552,12.9913168 194.44285,19.5000189 C205.054148,26.0087211 205.745434,26.5151516 212.93513,37.2871453 C220.124827,48.0591389 233.542194,87.9568857 229.337932,109.205181 C227.609486,117.940726 221.913546,134.924015 210.728265,147.865374 C197.71184,162.925364 178.845222,173.433759 174.762027,173.433759 C167.170058,173.43376 88.4125478,151.312643 88.4125478,151.312643 C80.2688624,143.347787 71.2711892,119.941517 70.0542829,105.688577 Z" id="Head" fill="#E5C06D" sketch:type="MSShapeGroup"></path>
            <path d="M113.122397,112.811631 C113.122397,112.811631 103.708211,132.153669 97.9032424,137.448373 C90.4626239,144.234952 85.6451613,155.521187 85.6451613,167.000159 C85.6451613,176.218046 87.5041704,187.470797 95.8939775,190.978698 C104.283785,194.486598 109.66056,188.356625 122.825366,188.356625 C132.776368,188.356625 137.161188,200.476754 154.292852,197.484204 C165.580233,195.51253 177.204644,181.834158 174.98604,166.355627 C172.767436,150.877097 160.025143,131.988712 158.891378,128.467896 C156.648416,121.502558 156.615059,116.588002 156.615059,116.588002" id="Snout" fill="#E5C06D" sketch:type="MSShapeGroup"></path>
            <path d="M147.112995,197.882928 C135.651652,196.978527 131.218318,188.356625 122.825366,188.356625 C114.295325,188.356625 109.034932,190.930171 104.10602,191.788002 C103.749577,191.753601 110.537938,202.072458 123.289043,203.107616 C136.040147,204.142773 148.004028,197.821234 148.004028,197.821234" id="Mouth" fill="#E5C06D" sketch:type="MSShapeGroup"></path>
            <path d="M81.691746,82.9211061 C80.207271,84.7311755 79.5530885,91.1545017 82.8128784,95.7413128 C84.6215708,98.2863021 91.4708193,102.318272 98.5480181,102.048325 C105.903567,102.068622 111.357437,98.5466297 111.995839,94.5159184 C112.765499,89.6564773 105.850518,84.051184 99.6406131,80.5412214 C97.5103389,79.3371477 94.5227341,79.2198094 94.5227341,79.2198094 C88.9925853,79.0043657 83.3347094,80.9177868 81.691746,82.9211061 L81.691746,82.9211061 Z" id="R_eye" fill="#F3E9D3" sketch:type="MSShapeGroup"></path>
            <path d="M104.530077,83.615775 C103.003893,82.5145384 101.387272,81.500656 99.8157298,80.6196462 C97.6818409,79.4233835 94.6891665,79.3068064 94.6891665,79.3068064 C93.3297649,79.2542795 91.9626584,79.3291236 90.649172,79.501402 C88.5663196,81.9404007 87.147708,85.9351928 87.147708,90.427367 C87.147708,94.3768642 88.2442719,97.941893 90.0052965,100.473803 C92.4563064,101.379378 95.5661796,102.106593 98.7212808,101.987231 C99.8395006,101.990291 100.913845,101.912291 101.93411,101.763766 C104.138149,99.2508763 105.679117,95.1092626 105.679117,90.427367 C105.679117,87.8159776 105.199722,85.3726698 104.365836,83.2849433" id="R_pupil" fill="#000000" sketch:type="MSShapeGroup"></path>
            <path d="M201.562837,94.5851306 C202.244187,96.8762038 199.712466,103.634161 193.215327,107.143747 C189.636179,109.077111 179.698741,111.036471 172.60369,108.975788 C165.660843,106.959311 161.741719,102.218735 162.235304,98.1988095 C163.034507,91.689827 177.761893,86.8107832 183.519446,86.8390002 C188.367424,86.8627595 199.878601,88.9218003 201.562837,94.5851306 L201.562837,94.5851306 Z" id="L_eye" fill="#F3E9D3" sketch:type="MSShapeGroup"></path>
            <path d="M186.45616,108.999103 C188.388126,106.456582 189.574748,102.714688 189.50227,98.5624107 C189.416686,93.6593256 187.596539,89.3893725 184.932522,87.021272 C184.202716,86.9620358 183.731343,86.9532567 183.310453,86.9585877 C181.022701,86.9875645 177.331977,87.7981801 173.671368,89.1644817 C171.93632,91.5962358 170.938426,95.0672737 171.00507,98.8852805 C171.07631,102.966629 172.349424,106.609283 174.310685,109.081481 C178.137493,109.857041 182.91287,109.514518 186.838274,108.725177" id="L_pupil" fill="#000000" sketch:type="MSShapeGroup"></path>
            <path d="M126.743848,174.692549 C137.006337,174.692549 146.739582,168.711478 149.399838,160.790152 C152.060094,152.868825 139.256406,143.000136 126.743848,143.000136 C114.23129,143.000136 99.8310975,151.896723 104.087858,160.790152 C108.344619,169.68358 116.48136,174.692549 126.743848,174.692549 Z" id="Nose" fill="#000000" sketch:type="MSShapeGroup"></path>
            <path d="M24.1588517,60.1184258 C27.9521822,56.4853795 34.7947064,49.0212306 40.6519082,43.7871504 C44.7159683,40.1554474 54.8238185,30.4231726 64.3933235,28.6631125 C72.8808347,27.1020569 80.5516714,32.8877047 89.3759337,38.8398998 C84.4729187,45.6927371 77.8863922,56.6120177 74.3193243,68.2891265 C73.1891016,71.9890094 72.3152741,75.7545188 71.6517012,79.4366264 C71.6350873,79.5293727 56.1204407,69.9646155 48.2732253,66.7637355 C40.545866,63.6117449 24.0642243,60.0669518 24.0642243,60.0669518" id="R_ear_b" fill="#D4B263" sketch:type="MSShapeGroup"></path>
            <path d="M89.1657282,39.1347486 C89.6288807,38.4827884 90.07788,37.866017 90.5088736,37.2871449 C98.5995895,26.4204176 105.191577,20.3928629 112.143509,16.7945272 C108.133478,11.7421989 95.8827948,6.09112348 89.0708922,3.94726943 C82.2589895,1.80341539 78.9890847,-5.41837765 58.910395,10.4052834 C38.8317053,26.2289444 31.2533228,33.1725125 22.1566943,43.7871511 C14.5617902,52.6494635 14.3845,51.6763453 10.9198753,54.3965355 C7.45525051,57.1167257 1.982853,57.8477107 0.561498567,60.7422454 C-1.0077542,63.9379696 1.3117937,66.832095 7.01677545,66.8320942 C9.86840307,66.8320939 16.4123163,66.1212122 22.1566951,61.8838473 C24.9264712,59.8407104 33.5196856,50.1606076 40.6519082,43.7871504 C44.7159683,40.1554474 54.8238185,30.4231726 64.3933235,28.6631125 C72.8808347,27.1020569 80.5516714,32.8877047 89.0708895,38.7246463" id="R_ear" fill="#E5C06D" sketch:type="MSShapeGroup"></path>
            <path d="M230.136608,96.1276377 C230.136608,96.1276377 231.271869,93.3763097 234.452309,91.7320211 C237.632748,90.0877324 238.082974,90.3387092 238.082974,90.3387092 C236.78705,75.2719577 232.759008,64.0387656 230.326553,56.7747105 C227.83209,49.3254846 227.127635,48.2481795 225.341541,46.75224 C222.690291,44.5316912 216.405229,48.7024447 218.739642,47.7266099 C223.455247,60.4457765 229.105088,79.864754 230.011016,95.765058" id="L_ear_b" fill="#D4B263" sketch:type="MSShapeGroup"></path>
            <path d="M218.200887,47.8022917 C216.314136,43.2613605 214.482659,39.6057373 212.93513,37.2871453 C206.510038,27.6607235 205.00132,25.7487677 197.23811,20.9087113 C199.447043,18.6865431 203.057508,12.7448537 209.198946,10.3327717 C212.366423,9.0887285 216.996304,10.7278071 219.527977,11.6941011 C226.968322,14.5339475 228.553528,16.4196915 242.304863,25.6277081 C256.056197,34.8357247 269.114952,45.5530201 277.926273,52.3093742 C286.737594,59.0657283 289.498133,62.0095787 290.394183,69.8894691 C291.290233,77.7693594 287.741738,85.5716129 286.638794,88.8655614 C283.612296,97.9042177 275.835816,112.253767 263.956795,119.987173 C252.077775,127.720579 246.037263,129.711792 243.259606,129.711792 C240.481949,129.711792 238.960327,129.711792 237.233768,126.280148 C235.507209,122.848504 238.235465,117.130725 238.235465,98.2137148 C238.235465,79.2967046 233.181789,65.301318 230.326553,56.7747105 C227.83209,49.3254846 227.127635,48.2481795 225.341541,46.75224 C222.690291,44.5316912 216.405229,48.7024447 218.739642,47.7266099" id="L_ear" fill="#E5C06D" sketch:type="MSShapeGroup"></path>
        </g>
    </g>
</svg>