<?xml version="1.0" encoding="UTF-8" standalone="no"?>
<svg width="290px" height="269px" viewBox="0 0 290 269" version="1.1" xmlns="http://www.w3.org/2000/svg" xmlns:xlink="http://www.w3.org/1999/xlink" xmlns:sketch="http://www.bohemiancoding.com/sketch/ns">
    <!-- Generator: Sketch 3.2.2 (9983) - http://www.bohemiancoding.com/sketch -->
    <title>Clouds</title>
    <desc>Created with Sketch.</desc>
    <defs></defs>
    <g id="Welcome" stroke="none" stroke-width="1" fill="none" fill-rule="evenodd" sketch:type="MSPage">
        <g id="Group" sketch:type="MSLayerGroup" transform="translate(145.115384, 134.217265) rotate(-86.000000) translate(-145.115384, -134.217265) translate(20.115384, -2.282735)" fill="#FDD835">
            <polygon id="Triangle-1" sketch:type="MSShapeGroup" transform="translate(234.500000, 72.000000) rotate(-6.000000) translate(-234.500000, -72.000000) " points="234.5 1 242 143 227 143 "></polygon>
            <polygon id="Triangle-2" sketch:type="MSShapeGroup" transform="translate(172.648653, 83.491250) rotate(-21.000000) translate(-172.648653, -83.491250) " points="172.648653 12.4912498 180.148653 154.49125 165.148653 154.49125 "></polygon>
            <polygon id="Triangle-3" sketch:type="MSShapeGroup" transform="translate(116.803379, 118.420975) rotate(-43.000000) translate(-116.803379, -118.420975) " points="116.803379 47.4209746 124.303379 189.420975 109.303379 189.420975 "></polygon>
            <polygon id="Triangle-4" sketch:type="MSShapeGroup" transform="translate(86.689757, 182.171523) rotate(-68.000000) translate(-86.689757, -182.171523) " points="86.6897575 111.171523 94.1897575 253.171523 79.1897575 253.171523 "></polygon>
            <polygon id="Triangle-5" sketch:type="MSShapeGroup" transform="translate(71.765831, 259.096049) rotate(-95.000000) translate(-71.765831, -259.096049) " points="71.765831 188.096049 79.265831 330.096049 64.265831 330.096049 "></polygon>
        </g>
    </g>
</svg>