<?xml version="1.0" encoding="UTF-8" standalone="no"?>
<svg width="293px" height="205px" viewBox="0 0 293 205" version="1.1" xmlns="http://www.w3.org/2000/svg" xmlns:xlink="http://www.w3.org/1999/xlink" xmlns:sketch="http://www.bohemiancoding.com/sketch/ns">
    <!-- Generator: Sketch 3.2.2 (9983) - http://www.bohemiancoding.com/sketch -->
    <title>Dog6Head</title>
    <desc>Created with Sketch.</desc>
    <defs></defs>
    <g id="Page-1" stroke="none" stroke-width="1" fill="none" fill-rule="evenodd" sketch:type="MSPage">
        <g id="Lala" sketch:type="MSLayerGroup" transform="translate(1.000000, 1.000000)" stroke="#000000" stroke-width="1.00000095">
            <path d="M70.0542829,105.688577 C69.405311,98.0875336 69.9198647,82.6911424 74.3193243,68.2891265 C78.1694202,55.6855006 85.5371403,43.9647333 90.5088736,37.2871449 C101.161748,22.9791544 109.216363,17.0605631 118.915419,14.0302868 C128.614475,11.0000105 144.822611,16.3652006 152.803912,16.819352 C160.785212,17.2735034 183.831552,12.9913168 194.44285,19.5000189 C205.054148,26.0087211 205.745434,26.5151516 212.93513,37.2871453 C220.124827,48.0591389 233.542194,87.9568857 229.337932,109.205181 C227.609486,117.940726 221.913546,134.924015 210.728265,147.865374 C197.71184,162.925364 178.845222,173.433759 174.762027,173.433759 C167.170058,173.43376 88.4125478,151.312643 88.4125478,151.312643 C80.2688624,143.347787 71.2711892,119.941517 70.0542829,105.688577 Z" id="Head" fill="#E5C06D" sketch:type="MSShapeGroup"></path>
            <path d="M113.122397,112.811631 C113.122397,112.811631 103.708211,132.153669 97.9032424,137.448373 C90.4626239,144.234952 85.6451613,155.521187 85.6451613,167.000159 C85.6451613,176.218046 87.5041704,187.470797 95.8939775,190.978698 C104.283785,194.486598 109.66056,188.356625 122.825366,188.356625 C132.776368,188.356625 137.161188,200.476754 154.292852,197.484204 C165.580233,195.51253 177.204644,181.834158 174.98604,166.355627 C172.767436,150.877097 160.025143,131.988712 158.891378,128.467896 C156.648416,121.502558 156.615059,116.588002 156.615059,116.588002" id="Snout" fill="#E5C06D" sketch:type="MSShapeGroup"></path>
            <path d="M147.112995,197.882928 C135.651652,196.978527 131.218318,188.356625 122.825366,188.356625 C114.295325,188.356625 109.034932,190.930171 104.10602,191.788002 C103.749577,191.753601 110.537938,202.072458 123.289043,203.107616 C136.040147,204.142773 148.004028,197.821234 148.004028,197.821234" id="Mouth" fill="#E5C06D" sketch:type="MSShapeGroup"></path>
            <path d="M81.691746,82.9211061 C80.207271,84.7311755 79.5530885,91.1545017 82.8128784,95.7413128 C84.6215708,98.2863021 91.4708193,102.318272 98.5480181,102.048325 C105.903567,102.068622 111.357437,98.5466297 111.995839,94.5159184 C112.765499,89.6564773 105.850518,84.051184 99.6406131,80.5412214 C97.5103389,79.3371477 94.5227341,79.2198094 94.5227341,79.2198094 C88.9925853,79.0043657 83.3347094,80.9177868 81.691746,82.9211061 L81.691746,82.9211061 Z" id="R_eye" fill="#F3E9D3" sketch:type="MSShapeGroup"></path>
            <path d="M104.530077,83.615775 C103.003893,82.5145384 101.387272,81.500656 99.8157298,80.6196462 C97.6818409,79.4233835 94.6891665,79.3068064 94.6891665,79.3068064 C93.3297649,79.2542795 91.9626584,79.3291236 90.649172,79.501402 C88.5663196,81.9404007 87.147708,85.9351928 87.147708,90.427367 C87.147708,94.3768642 88.2442719,97.941893 90.0052965,100.473803 C92.4563064,101.379378 95.5661796,102.106593 98.7212808,101.987231 C99.8395006,101.990291 100.913845,101.912291 101.93411,101.763766 C104.138149,99.2508763 105.679117,95.1092626 105.679117,90.427367 C105.679117,87.8159776 105.199722,85.3726698 104.365836,83.2849433" id="R_pupil" fill="#000000" sketch:type="MSShapeGroup"></path>
            <path d="M201.562837,94.5851306 C202.244187,96.8762038 199.712466,103.634161 193.215327,107.143747 C189.636179,109.077111 179.698741,111.036471 172.60369,108.975788 C165.660843,106.959311 161.741719,102.218735 162.235304,98.1988095 C163.034507,91.689827 177.761893,86.8107832 183.519446,86.8390002 C188.367424,86.8627595 199.878601,88.9218003 201.562837,94.5851306 L201.562837,94.5851306 Z" id="L_eye" fill="#F3E9D3" sketch:type="MSShapeGroup"></path>
            <path d="M186.45616,108.999103 C188.388126,106.456582 189.574748,102.714688 189.50227,98.5624107 C189.416686,93.6593256 187.596539,89.3893725 184.932522,87.021272 C184.202716,86.9620358 183.731343,86.9532567 183.310453,86.9585877 C181.022701,86.9875645 177.331977,87.7981801 173.671368,89.1644817 C171.93632,91.5962358 170.938426,95.0672737 171.00507,98.8852805 C171.07631,102.966629 172.349424,106.609283 174.310685,109.081481 C178.137493,109.857041 182.91287,109.514518 186.838274,108.725177" id="L_pupil" fill="#000000" sketch:type="MSShapeGroup"></path>
            <path d="M126.743848,174.692549 C137.006337,174.692549 146.739582,168.711478 149.399838,160.790152 C152.060094,152.868825 139.256406,143.000136 126.743848,143.000136 C114.23129,143.000136 99.8310975,151.896723 104.087858,160.790152 C108.344619,169.68358 116.48136,174.692549 126.743848,174.692549 Z" id="Nose" fill="#000000" sketch:type="MSShapeGroup"></path>
            <path d="M24.1588517,60.1184258 C27.9521822,56.4853795 34.7947064,49.0212306 40.6519082,43.7871504 C44.7159683,40.1554474 54.8238185,30.4231726 64.3933235,28.6631125 C72.8808347,27.1020569 80.5516714,32.8877047 89.3759337,38.8398998 C84.4729187,45.6927371 77.8863922,56.6120177 74.3193243,68.2891265 C73.1891016,71.9890094 72.3152741,75.7545188 71.6517012,79.4366264 C71.6350873,79.5293727 56.1204407,69.9646155 48.2732253,66.7637355 C40.545866,63.6117449 24.0642243,60.0669518 24.0642243,60.0669518" id="R_ear_b" fill="#D4B263" sketch:type="MSShapeGroup"></path>
            <path d="M89.1657282,39.1347486 C89.6288807,38.4827884 90.07788,37.866017 90.5088736,37.2871449 C98.5995895,26.4204176 105.191577,20.3928629 112.143509,16.7945272 C108.133478,11.7421989 95.8827948,6.09112348 89.0708922,3.94726943 C82.2589895,1.80341539 78.9890847,-5.41837765 58.910395,10.4052834 C38.8317053,26.2289444 31.2533228,33.1725125 22.1566943,43.7871511 C14.5617902,52.6494635 14.3845,51.6763453 10.9198753,54.3965355 C7.45525051,57.1167257 1.982853,57.8477107 0.561498567,60.7422454 C-1.0077542,63.9379696 1.3117937,66.832095 7.01677545,66.8320942 C9.86840307,66.8320939 16.4123163,66.1212122 22.1566951,61.8838473 C24.9264712,59.8407104 33.5196856,50.1606076 40.6519082,43.7871504 C44.7159683,40.1554474 54.8238185,30.4231726 64.3933235,28.6631125 C72.8808347,27.1020569 80.5516714,32.8877047 89.0708895,38.7246463" id="R_ear" fill="#E5C06D" sketch:type="MSShapeGroup"></path>
            <path d="M230.136608,96.1276377 C230.136608,96.1276377 231.271869,93.3763097 234.452309,91.7320211 C237.632748,90.0877324 238.082974,90.3387092 238.082974,90.3387092 C236.78705,75.2719577 232.759008,64.0387656 230.326553,56.7747105 C227.83209,49.3254846 227.127635,48.2481795 225.341541,46.75224 C222.690291,44.5316912 216.405229,48.7024447 218.739642,47.7266099 C223.455247,60.4457765 229.105088,79.864754 230.011016,95.765058" id="L_ear_b" fill="#D4B263" sketch:type="MSShapeGroup"></path>
            <path d="M218.200887,47.8022917 C216.314136,43.2613605 214.482659,39.6057373 212.93513,37.2871453 C206.510038,27.6607235 205.00132,25.7487677 197.23811,20.9087113 C199.447043,18.6865431 203.057508,12.7448537 209.198946,10.3327717 C212.366423,9.0887285 216.996304,10.7278071 219.527977,11.6941011 C226.968322,14.5339475 228.553528,16.4196915 242.304863,25.6277081 C256.056197,34.8357247 269.114952,45.5530201 277.926273,52.3093742 C286.737594,59.0657283 289.498133,62.0095787 290.394183,69.8894691 C291.290233,77.7693594 287.741738,85.5716129 286.638794,88.8655614 C283.612296,97.9042177 275.835816,112.253767 263.956795,119.987173 C252.077775,127.720579 246.037263,129.711792 243.259606,129.711792 C240.481949,129.711792 238.960327,129.711792 237.233768,126.280148 C235.507209,122.848504 238.235465,117.130725 238.235465,98.2137148 C238.235465,79.2967046 233.181789,65.301318 230.326553,56.7747105 C227.83209,49.3254846 227.127635,48.2481795 225.341541,46.75224 C222.690291,44.5316912 216.405229,48.7024447 218.739642,47.7266099" id="L_ear" fill="#E5C06D" sketch:type="MSShapeGroup"></path>
        </g>
    </g>
</svg>