<?xml version="1.0" encoding="UTF-8" standalone="no"?>
<svg width="182px" height="126px" viewBox="0 0 182 126" version="1.1" xmlns="http://www.w3.org/2000/svg" xmlns:xlink="http://www.w3.org/1999/xlink" xmlns:sketch="http://www.bohemiancoding.com/sketch/ns">
    <!-- Generator: Sketch 3.2.2 (9983) - http://www.bohemiancoding.com/sketch -->
    <title>Clouds</title>
    <desc>Created with Sketch.</desc>
    <defs></defs>
    <g id="Welcome" stroke="none" stroke-width="1" fill="none" fill-rule="evenodd" sketch:type="MSPage">
        <path d="M71.1657139,106.080957 C63.7927158,111.065975 54.7591524,114 45,114 C20.1471863,114 0,94.9721019 0,71.5 C0,48.0278981 20.1471863,29 45,29 C51.9350248,29 58.5036436,30.4816162 64.3703443,33.1279759 C71.9721389,13.4030921 86.8680481,0 104,0 C122.520475,0 138.427762,15.6637427 145.331567,38.0448174 C165.785196,38.8333526 182,49.9285629 182,63.5 C182,77.1420489 165.616027,88.2820364 145.011966,88.9666526 C137.945689,110.806773 122.24019,126 104,126 C91.0490574,126 79.3759333,118.340612 71.1657139,106.080957 L71.1657139,106.080957 Z" id="Oval-5" fill="#F5F5F5" sketch:type="MSShapeGroup"></path>
    </g>
</svg>