<?xml version="1.0" encoding="UTF-8" standalone="no"?>
<svg width="256px" height="126px" viewBox="0 0 256 126" version="1.1" xmlns="http://www.w3.org/2000/svg" xmlns:xlink="http://www.w3.org/1999/xlink" xmlns:sketch="http://www.bohemiancoding.com/sketch/ns">
    <!-- Generator: Sketch 3.2.2 (9983) - http://www.bohemiancoding.com/sketch -->
    <title>Clouds</title>
    <desc>Created with Sketch.</desc>
    <defs></defs>
    <g id="Welcome" stroke="none" stroke-width="1" fill="none" fill-rule="evenodd" sketch:type="MSPage">
        <path d="M87.6787503,106.303932 C80.4853005,107.399455 72.6700439,108 64.5,108 C28.8776336,108 0,96.5832611 0,82.5 C0,68.4167389 28.8776336,57 64.5,57 C65.2857183,57 66.0681553,57.0055543 66.8470735,57.016569 C65.6401351,53.486979 65,49.7972202 65,46 C65,20.5949015 93.653776,0 129,0 C164.346224,0 193,20.5949015 193,46 C193,49.8316234 192.348213,53.5538293 191.119982,57.1124648 L191.119982,57.1124648 C192.729559,57.0379692 194.357068,57 196,57 C229.137085,57 256,72.4461761 256,91.5 C256,110.553824 229.137085,126 196,126 C175.930057,126 158.161662,120.333895 147.269122,111.631911 C140.313591,113.771132 132.184843,115 123.5,115 C109.088369,115 96.2080105,111.616179 87.678753,106.303934 L87.6787503,106.303932 Z" id="Oval-5" fill="#F5F5F5" sketch:type="MSShapeGroup"></path>
    </g>
</svg>