<?xml version="1.0" encoding="UTF-8" standalone="no"?>
<svg width="1440px" height="720px" viewBox="0 0 1440 720" version="1.1" xmlns="http://www.w3.org/2000/svg" xmlns:xlink="http://www.w3.org/1999/xlink" xmlns:sketch="http://www.bohemiancoding.com/sketch/ns">
    <!-- Generator: Sketch 3.2.2 (9983) - http://www.bohemiancoding.com/sketch -->
    <title>fullscene</title>
    <desc>Created with Sketch.</desc>
    <defs></defs>
    <g id="Page-1" stroke="none" stroke-width="1" fill="none" fill-rule="evenodd" sketch:type="MSPage">
        <rect id="sky" fill="#90CAF9" sketch:type="MSShapeGroup" x="0.999306037" y="0" width="1440.00073" height="720"></rect>
        <path d="M1441.00004,663.000342 L1441.00004,606.000684 C1338.98056,614.697823 1252.92282,633.091017 1197.67684,657.17313 L1197.67684,657.17313 C1164.42941,637.066671 1115.66208,624.375 1061.31235,624.375 C991.05533,624.375 930.126686,645.583178 899.992538,676.600861 L899.992538,676.600861 C859.088517,640.798182 769.138005,615.9375 664.749644,615.9375 C572.57805,615.9375 491.662675,635.3197 445.827789,664.502606 C403.37257,624.005549 316.466528,596.25 216.155665,596.25 C126.187443,596.25 47.0023124,618.577093 0.999306037,652.398968 L0.999306037,720 L1441.00004,720 L1441.00004,663.000342 L1441.00004,663.000342 Z" id="grass" fill="#AED581" sketch:type="MSShapeGroup"></path>
        <path d="M249.70706,95.2909931 C243.753963,69.0498689 225.925801,50 204.857738,50 C184.393864,50 166.986729,67.972912 160.54968,93.0513871 C159.668316,93.017254 158.781726,93 157.890354,93 C126.431969,93 100.92991,114.490332 100.92991,141 C100.92991,164.059978 120.226672,183.321951 145.955019,187.944563 L145.955019,187.944563 C151.620886,209.008271 179.416443,225 212.852186,225 C250.381487,225 280.804997,204.852814 280.804997,180 C280.804997,179.851417 280.803909,179.703001 280.801739,179.554758 C309.617818,176.50578 331.769604,158.16723 331.769604,136 C331.769604,111.699471 305.149034,92 272.310895,92 C264.308643,92 256.675614,93.1698278 249.70706,95.2909931 L249.70706,95.2909931 L249.70706,95.2909931 Z" id="cloud3" fill="#F5F5F5" sketch:type="MSShapeGroup"></path>
        <path d="M588.270229,131.303932 C581.081771,132.399455 573.271938,133 565.107564,133 C529.509918,133 500.652325,121.583261 500.652325,107.5 C500.652325,93.4167389 529.509918,82 565.107564,82 C565.892737,82 566.674631,82.0055543 567.453009,82.016569 C566.246908,78.486979 565.607217,74.7972202 565.607217,71 C565.607217,45.5949015 594.241109,25 629.562804,25 C664.884499,25 693.51839,45.5949015 693.51839,71 C693.51839,74.8316234 692.867055,78.5538293 691.639677,82.1124648 L691.639677,82.1124648 C693.248137,82.0379692 694.874516,82 696.516308,82 C729.630397,82 756.47467,97.4461761 756.47467,116.5 C756.47467,135.553824 729.630397,151 696.516308,151 C676.460293,151 658.704229,145.333895 647.819248,136.631911 C640.868543,138.771132 632.745436,140 624.06662,140 C609.664991,140 596.793571,136.616179 588.270232,131.303934 L588.270229,131.303932 L588.270229,131.303932 Z" id="cloud2" fill="#F5F5F5" sketch:type="MSShapeGroup"></path>
        <path d="M971.491067,206.080957 C964.123186,211.065975 955.095891,214 945.343511,214 C920.507945,214 900.37474,194.972102 900.37474,171.5 C900.37474,148.027898 920.507945,129 945.343511,129 C952.273724,129 958.837784,130.481616 964.700413,133.127976 C972.296933,113.403092 987.182505,100 1004.30257,100 C1022.81019,100 1038.70644,115.663743 1045.60545,138.044817 C1066.04489,138.833353 1082.24844,149.928563 1082.24844,163.5 C1082.24844,177.142049 1065.87584,188.282036 1045.28607,188.966653 C1038.2247,210.806773 1022.5301,226 1004.30257,226 C991.360613,226 979.695589,218.340612 971.491067,206.080957 L971.491067,206.080957 L971.491067,206.080957 Z" id="cloud1" fill="#F5F5F5" sketch:type="MSShapeGroup"></path>
        <path d="M1441,139.320391 C1430.18988,142.368996 1418.78541,144 1407,144 C1337.96441,144 1282,88.0355937 1282,19 C1282,12.540518 1282.48996,6.19547235 1283.43474,3.55271368e-15 L1441,0 L1441,139.320391 L1441,139.320391 Z" id="sun" fill="#FDD835" sketch:type="MSShapeGroup"></path>
        <g id="sunrays" sketch:type="MSLayerGroup" transform="translate(1157.000000, 0.000000)" fill="#FDD835">
            <path d="M61.0245745,-54.2978905 L83.3265305,86.1402552 L68.408702,87.7081822 L61.0245745,-54.2978905 L61.0245745,-54.2978905 Z" id="Triangle-1" sketch:type="MSShapeGroup" transform="translate(72.175552, 16.705146) rotate(-86.000000) translate(-72.175552, -16.705146) "></path>
            <path d="M51.3128652,11.8736999 L109.202967,141.754361 L95.1992609,147.12988 L51.3128652,11.8736999 L51.3128652,11.8736999 Z" id="Triangle-2" sketch:type="MSShapeGroup" transform="translate(80.257916, 79.501790) rotate(-86.000000) translate(-80.257916, -79.501790) "></path>
            <path d="M61.2002825,84.0051559 L163.529203,182.742394 L152.558897,192.972369 L61.2002825,84.0051559 L61.2002825,84.0051559 Z" id="Triangle-3" sketch:type="MSShapeGroup" transform="translate(112.364743, 138.488763) rotate(-86.000000) translate(-112.364743, -138.488763) "></path>
            <path d="M107.448434,144.300715 L241.918091,190.540972 L236.298992,204.44873 L107.448434,144.300715 L107.448434,144.300715 Z" id="Triangle-4" sketch:type="MSShapeGroup" transform="translate(174.683263, 174.374723) rotate(-86.000000) translate(-174.683263, -174.374723) "></path>
            <path d="M172.052414,205.124251 L312.858393,185.276675 L314.165729,200.219596 L172.052414,205.124251 L172.052414,205.124251 Z" id="Triangle-5" sketch:type="MSShapeGroup" transform="translate(243.109071, 195.200463) rotate(-86.000000) translate(-243.109071, -195.200463) "></path>
        </g>
        <g id="lala" sketch:type="MSLayerGroup" transform="translate(701.000000, 297.000000)" stroke="#000000">
            <path d="M278.11097,175.1906 C278.844386,174.135066 287.532903,150.674039 289.858672,124.376147 C292.163108,98.319455 288.136367,69.4687055 282.133567,58.8019275 C275.207631,46.4947661 268.445973,33.5024299 251.961161,26.3478265 C247.691508,24.4947467 211.999086,20.7372708 194.223912,36.8654048 C188.994621,41.6101522 182.375984,66.2686915 189.549424,84.3849345 C192.938535,92.9440015 202.787491,102.125058 212.754012,105.664231 C221.461182,108.756201 230.735271,106.974694 229.628038,104.131028 C228.088388,100.176799 213.35668,92.892457 210.522163,88.8038795 C209.170777,86.854606 202.752242,69.7470555 207.808228,59.948411 C212.517173,50.8223405 228.643175,48.890389 229.628038,49.0070065 C241.594258,50.423925 251.961162,71.2999735 251.961162,71.2999735 C251.961162,71.2999735 258.320594,96.792766 254.550184,115.765794 C250.906019,134.103548 242.855181,151.15056 242.855181,151.15056 C239.241738,159.208619 277.974084,175.387606 278.11097,175.1906 L278.11097,175.1906 Z" id="Tail" fill="#E5C06D" sketch:type="MSShapeGroup"></path>
            <path d="M183.552045,338.515625 C183.377642,322.983677 179.646056,304.401732 177.583533,302.265625 C174.057512,298.613808 163.571617,304.96859 154.91748,304.683594 C154.62181,321.472333 152.998742,322.337888 150.785435,327.708984 C148.572128,333.080081 144.40527,342.078256 153.633067,352.708984 C159.38545,359.335919 166.757056,360.40622 172.675507,360.470703 C176.251256,360.509662 179.663393,359.910531 181.911281,357.672851 C183.055213,351.881232 183.624892,345.003233 183.552045,338.515625 L183.552045,338.515625 Z" id="Back_foot" fill="#D4B263" sketch:type="MSShapeGroup"></path>
            <path d="M94.4456537,190.306641 C94.4456537,216.941406 91.5107458,216.218975 89.9761015,257.427734 C88.4414573,298.636495 90.5604852,325.247393 89.9761015,341.880859 C89.3917184,358.514325 87.0445433,367.837888 84.8312369,373.208984 C82.6179299,378.580081 78.4510715,387.578255 87.6788688,398.208984 C96.9066661,408.839713 110.881505,404.824222 110.881505,404.824222 C110.881505,404.824222 120.314411,404.150393 126.282921,398.208987 C132.251431,392.267581 135.979311,385.990237 132.251431,373.208987 C130.476165,367.122387 126.124357,352.636868 126.282919,338.515625 C126.457322,322.983677 130.188908,304.401732 132.251431,302.265625 C136.374396,297.995567 144.798227,304.350349 154.91748,304.683594 C163.571617,304.96859 174.057512,298.613808 177.583533,302.265625 C179.646056,304.401732 183.377642,322.983677 183.552045,338.515625 C183.710607,352.636868 179.358799,367.122387 177.583533,373.208987 C173.855653,385.990237 177.583533,392.267581 183.552043,398.208987 C189.520553,404.150393 198.953459,404.824222 198.953459,404.824222 C198.953459,404.824222 212.928298,408.839713 222.156095,398.208984 C231.383893,387.578255 227.217034,378.580081 225.003727,373.208984 C222.790421,367.837888 220.443246,358.514325 219.858863,341.880859 C219.549283,333.069201 214.70229,300.357418 220.871678,280.816401 C226.348034,263.470508 242.670607,258.442761 246.002515,260.562502 C251.311118,263.939804 249.477141,290.42382 249.506243,293.015625 C249.664806,307.136868 245.312997,321.622387 243.537732,327.708987 C239.809852,340.490237 243.537732,346.767581 249.506242,352.708987 C255.474751,358.650394 264.907657,359.324222 264.907657,359.324222 C264.907657,359.324222 278.882497,363.339713 288.110294,352.708984 C297.338091,342.078256 293.171233,333.080081 290.957926,327.708984 C288.744619,322.337888 286.397444,313.014325 285.813061,296.380859 C285.228677,279.747393 287.767822,226.595381 288.110294,211.927735 C288.221155,207.179669 289.954863,160.231155 277.824167,148.509765 C268.609737,139.606244 255.50321,138.183016 244.185898,139.180502 C231.384097,140.308828 212.900499,146.49414 212.900499,146.49414 C209.470734,166.250335 206.437862,195.582066 199.00763,208.673523 C196.061229,213.86484 186.349052,224.471872 175.23955,229.891016 C174.175594,230.410007 161.295836,236.602406 147.596198,237.266194 C141.847046,237.544757 131.357963,235.708921 123.608021,232.016602 C115.556622,228.180659 110.320564,222.44574 108.74139,220.704102 C101.707236,212.946275 94.5512349,196.855296 94.5451941,191.659184" id="Body" fill="#E5C06D" sketch:type="MSShapeGroup"></path>
            <path d="M94.196135,191.121206 C97.909094,198.890368 112.237373,215.940931 130.177675,220.704102 C149.32507,225.787757 172.262246,218.17144 180.131718,212.939845 C186.450194,208.739346 195.462197,200.038686 200.674563,188.210014 C208.036627,171.502927 212.099126,150.699483 212.099126,146 C209.470734,166.250335 206.437862,195.582066 199.00763,208.673523 C196.061229,213.864839 186.349052,224.471872 175.23955,229.891016 C174.175594,230.410007 161.295836,236.602406 147.596198,237.266194 C141.847046,237.544757 131.357963,235.708921 123.608021,232.016602 C115.556622,228.180659 110.320564,222.44574 108.74139,220.704102 C101.707236,212.946275 94.5512349,196.855296 94.5451941,191.659184" id="Collar" fill="#000000" sketch:type="MSShapeGroup"></path>
            <path d="M94.196135,191.121206 C97.909094,198.890368 112.237373,215.94093 130.177675,220.704101 C149.32507,225.787757 172.262246,218.17144 180.131718,212.939845 C186.450194,208.739346 195.462197,200.038686 200.674563,188.210013 C208.036627,171.502926 212.099126,150.699483 212.099126,146 C208.858395,142.604663 191.928809,129.864922 175.286264,122.37874 C163.503287,117.078499 150.988226,116.647043 143.483952,117.756285 C134.137603,119.137813 111.999185,128.836412 101.169167,145.43531 C91.0218963,160.987777 91.7750448,183.252962 94.2107553,191.512754" id="Neck" fill="#E5C06D" sketch:type="MSShapeGroup"></path>
            <path d="M69.9001996,106.188476 C69.2527772,98.58744 69.7661023,83.1910635 74.1550574,68.7890615 C77.9959601,56.1854475 85.3460883,44.4646913 90.305951,37.7871094 C100.93339,23.4791325 108.968772,17.5605468 118.644669,14.5302734 C128.320567,11.5 144.490003,16.8651849 152.452247,17.3193359 C160.41449,17.7734869 183.405802,13.4913044 193.991763,20.0000003 C204.577725,26.5086962 205.267361,27.0151263 212.43989,37.7871097 C219.612419,48.5590931 232.99775,88.456802 228.803526,109.705076 C227.079208,118.440613 221.396868,135.423887 210.238294,148.365233 C197.252949,163.425208 178.431379,173.933593 174.357933,173.933594 C166.784091,173.933595 88.2146303,151.812499 88.2146303,151.812499 C80.0903896,143.84765 71.1142001,120.441402 69.9001996,106.188476 L69.9001996,106.188476 Z" id="Head" fill="#E5C06D" sketch:type="MSShapeGroup"></path>
            <path d="M112.86548,113.311524 C112.86548,113.311524 103.473772,132.653544 97.6826638,137.948242 C90.2598115,144.734814 85.4538515,156.021039 85.4538515,167.5 C85.4538515,176.717878 87.3084216,187.970619 95.6781968,191.478516 C104.047971,194.986413 109.411908,188.856446 122.545281,188.856446 C132.472523,188.856446 136.846873,200.976562 153.937632,197.984015 C165.198062,196.012344 176.794717,182.333985 174.58141,166.855469 C172.368104,151.376953 159.656236,132.488586 158.525178,128.967774 C156.287571,122.002443 156.254294,117.087891 156.254294,117.087891" id="Snout" fill="#E5C06D" sketch:type="MSShapeGroup"></path>
            <path d="M146.774919,198.382739 C135.340942,197.478339 130.918193,188.856446 122.545281,188.856446 C114.035607,188.856446 108.787774,191.429989 103.870631,192.28782 C103.51504,192.253418 110.287192,202.572265 123.00785,203.607422 C135.728509,204.642578 147.663824,198.321045 147.663824,198.321045" id="Mouth" fill="#E5C06D" sketch:type="MSShapeGroup"></path>
            <path d="M81.7048533,83.4210271 C80.2203798,85.2310948 79.5661981,91.6544146 82.8259848,96.2412215 C84.6346756,98.7862085 91.4839172,102.818175 98.5611096,102.548228 C105.916652,102.568525 111.370516,99.0465356 112.008918,95.0158283 C112.778577,90.1563917 105.863602,84.5511039 99.6537037,81.0411446 C97.523431,79.8370723 94.535829,79.7197337 94.535829,79.7197337 C89.0056856,79.5042902 83.3478151,81.4177094 81.7048533,83.4210271 L81.7048533,83.4210271 L81.7048533,83.4210271 Z" id="R_eye" fill="#F3E9D3" sketch:type="MSShapeGroup"></path>
            <path d="M104.188923,84.115695 C102.667913,83.0144595 101.056771,82.0005785 99.4905566,81.1195695 C97.3639013,79.923308 94.3813717,79.806731 94.3813717,79.806731 C93.0265782,79.754204 91.6641059,79.829048 90.3550721,80.001326 C88.2792799,82.4403225 86.8654773,86.435111 86.8654773,90.927281 C86.8654773,94.876774 87.9583242,98.4417995 89.7133789,100.973707 C92.1560807,101.879282 95.2554117,102.606496 98.3998176,102.487134 C99.5142468,102.490194 100.584949,102.412194 101.601756,102.263669 C103.798323,99.7507815 105.334068,95.609172 105.334068,90.927281 C105.334068,88.315894 104.856298,85.8725885 104.025239,83.784864" id="R_pupil" fill="#000000" sketch:type="MSShapeGroup"></path>
            <path d="M201.57583,95.0850404 C202.257179,97.3761112 199.72546,104.134062 193.228328,107.643645 C189.649184,109.577007 179.711755,111.536365 172.616711,109.475685 C165.673871,107.459209 161.75475,102.718638 162.248335,98.698716 C163.047536,92.1897393 177.774909,87.3107004 183.532456,87.3389172 C188.38043,87.3626767 199.891596,89.4217153 201.57583,95.0850404 L201.57583,95.0850404 L201.57583,95.0850404 Z" id="L_eye" fill="#F3E9D3" sketch:type="MSShapeGroup"></path>
            <path d="M186.469168,109.499 C188.401132,106.956481 189.587753,103.21459 189.515274,99.0623168 C189.429691,94.1592362 187.609545,89.8892873 184.945531,87.5211891 C184.215726,87.4619529 183.744353,87.4531737 183.323463,87.4585045 C181.035714,87.4874817 177.344993,88.2980966 173.684388,89.6643965 C171.949342,92.0961486 170.951448,95.5671829 171.018092,99.3851863 C171.089332,103.466531 172.362445,107.109182 174.323705,109.581377 C178.150508,110.356937 182.925881,110.014414 186.851282,109.225073" id="L_pupil" fill="#000000" sketch:type="MSShapeGroup"></path>
            <path d="M126.327394,175.192383 C136.555094,175.192383 146.255345,169.211317 148.906583,161.289998 C151.557822,153.36868 138.797535,143.5 126.327393,143.5 C113.857251,143.5 99.505872,152.396579 103.748203,161.289998 C107.990534,170.183418 116.099693,175.192383 126.327394,175.192383 L126.327394,175.192383 Z" id="Nose" fill="#000000" sketch:type="MSShapeGroup"></path>
            <path d="M24.0901426,60.6183685 C27.8706143,56.9853255 34.6899436,49.5211838 40.5272903,44.2871086 C44.5775741,40.6554091 54.6511606,30.9231436 64.1882266,29.1630852 C72.6469664,27.602031 80.2918,33.3876733 89.0861497,39.3398628 C84.1997553,46.1926935 77.635556,57.1119635 74.0805798,68.7890615 C72.954188,72.4889405 72.083323,76.2544465 71.4219992,79.9365505 C71.4054419,80.029297 55.9433874,70.464549 48.1227725,67.263672 C40.4216077,64.111684 23.995836,60.5668945 23.995836,60.5668945" id="R_ear_b" fill="#D4B263" sketch:type="MSShapeGroup"></path>
            <path d="M88.8766569,39.6347113 C89.3382394,38.9827517 89.7857164,38.365981 90.2152494,37.7871094 C98.2785388,26.9203925 104.84818,20.8928435 111.776547,17.2945113 C107.780109,12.2421878 95.5709536,6.59111765 88.7821422,4.44726567 C81.9933308,2.30341367 78.7345105,-4.9183725 58.7238842,10.9052735 C38.7132577,26.7289194 31.1605647,33.6724809 22.0947722,44.2871094 C14.5256135,53.1494135 14.3489243,52.176296 10.896044,54.8964835 C7.44316377,57.616671 1.98931676,58.3476555 0.572780471,61.2421875 C-0.991152799,64.4379085 1.32053223,67.3320315 7.00617505,67.3320305 C9.84813613,67.33203 16.3698667,66.621149 22.0947729,62.3837885 C24.85516,60.3406535 33.4192449,50.66056 40.5272903,44.2871087 C44.5775741,40.6554092 54.6511606,30.9231436 64.1882266,29.1630852 C72.6469664,27.6020311 80.2918,33.3876733 88.7821397,39.2246094" id="R_ear" fill="#E5C06D" sketch:type="MSShapeGroup"></path>
            <path d="M229.36967,96.627546 C229.36967,96.627546 230.501082,93.8762205 233.67074,92.2319335 C236.840398,90.5876465 237.289098,90.838623 237.289098,90.838623 C235.997568,75.771886 231.98318,64.5387045 229.55897,57.2746565 C227.072964,49.8254376 226.370896,48.7481335 224.590857,47.2521954 C221.948594,45.0316487 215.684837,49.2023982 218.011337,48.2265644 C222.710957,60.945719 228.341646,80.364678 229.244503,96.2649665" id="L_ear_b" fill="#D4B263" sketch:type="MSShapeGroup"></path>
            <path d="M217.474408,48.3022461 C215.594053,43.7613192 213.768785,40.1056995 212.226501,37.7871097 C205.82319,28.1606971 204.319586,26.2487431 196.582692,21.4086914 C198.784137,19.1865253 202.382363,13.2448415 208.502983,10.8327618 C211.659722,9.58871985 216.273909,11.2277969 218.796999,12.1940899 C226.212123,15.0339336 227.791955,16.9196758 241.496676,26.1276836 C255.201396,35.3356915 268.215883,46.0529766 276.997335,52.8093245 C285.778788,59.565672 288.529968,62.5095195 289.422981,70.3894025 C290.315994,78.269285 286.779527,86.0715315 285.680322,89.3654765 C282.664084,98.4041245 274.913964,112.75366 263.075212,120.487058 C251.236459,128.220457 245.216424,130.211668 242.448182,130.211668 C239.679941,130.211668 238.163477,130.211668 236.442771,126.780027 C234.722065,123.348387 237.441073,117.630613 237.441073,98.713621 C237.441073,79.796629 232.404528,65.801256 229.55897,57.2746565 C227.072964,49.8254376 226.370896,48.7481335 224.590857,47.2521954 C221.948594,45.0316487 215.684837,49.2023982 218.011337,48.2265644" id="L_ear" fill="#E5C06D" sketch:type="MSShapeGroup"></path>
        </g>
    </g>
</svg>