<?xml version="1.0" encoding="UTF-8" standalone="no"?>
<svg width="1440px" height="720px" viewBox="0 0 1440 720" version="1.1" xmlns="http://www.w3.org/2000/svg" xmlns:xlink="http://www.w3.org/1999/xlink" xmlns:sketch="http://www.bohemiancoding.com/sketch/ns">
    <!-- Generator: Sketch 3.2.2 (9983) - http://www.bohemiancoding.com/sketch -->
    <title>Untitled</title>
    <desc>Created with Sketch.</desc>
    <defs></defs>
    <g id="Page-1" stroke="none" stroke-width="1" fill="none" fill-rule="evenodd" sketch:type="MSPage">
        <rect id="sky" fill="#90CAF9" sketch:type="MSShapeGroup" x="0.999306037" y="0" width="1440.00073" height="720"></rect>
        <path d="M1441.00004,663.000342 L1441.00004,606.000684 C1338.98056,614.697823 1252.92282,633.091017 1197.67684,657.17313 L1197.67684,657.17313 C1164.42941,637.066671 1115.66208,624.375 1061.31235,624.375 C991.05533,624.375 930.126686,645.583178 899.992538,676.600861 L899.992538,676.600861 C859.088517,640.798182 769.138005,615.9375 664.749644,615.9375 C572.57805,615.9375 491.662675,635.3197 445.827789,664.502606 C403.37257,624.005549 316.466528,596.25 216.155665,596.25 C126.187443,596.25 47.0023124,618.577093 0.999306037,652.398968 L0.999306037,720 L1441.00004,720 L1441.00004,663.000342 L1441.00004,663.000342 Z" id="grass" fill="#AED581" sketch:type="MSShapeGroup"></path>
        <path d="M249.70706,95.2909931 C243.753963,69.0498689 225.925801,50 204.857738,50 C184.393864,50 166.986729,67.972912 160.54968,93.0513871 C159.668316,93.017254 158.781726,93 157.890354,93 C126.431969,93 100.92991,114.490332 100.92991,141 C100.92991,164.059978 120.226672,183.321951 145.955019,187.944563 L145.955019,187.944563 C151.620886,209.008271 179.416443,225 212.852186,225 C250.381487,225 280.804997,204.852814 280.804997,180 C280.804997,179.851417 280.803909,179.703001 280.801739,179.554758 C309.617818,176.50578 331.769604,158.16723 331.769604,136 C331.769604,111.699471 305.149034,92 272.310895,92 C264.308643,92 256.675614,93.1698278 249.70706,95.2909931 L249.70706,95.2909931 L249.70706,95.2909931 Z" id="cloud3" fill="#F5F5F5" sketch:type="MSShapeGroup"></path>
        <path d="M588.270229,131.303932 C581.081771,132.399455 573.271938,133 565.107564,133 C529.509918,133 500.652325,121.583261 500.652325,107.5 C500.652325,93.4167389 529.509918,82 565.107564,82 C565.892737,82 566.674631,82.0055543 567.453009,82.016569 C566.246908,78.486979 565.607217,74.7972202 565.607217,71 C565.607217,45.5949015 594.241109,25 629.562804,25 C664.884499,25 693.51839,45.5949015 693.51839,71 C693.51839,74.8316234 692.867055,78.5538293 691.639677,82.1124648 L691.639677,82.1124648 C693.248137,82.0379692 694.874516,82 696.516308,82 C729.630397,82 756.47467,97.4461761 756.47467,116.5 C756.47467,135.553824 729.630397,151 696.516308,151 C676.460293,151 658.704229,145.333895 647.819248,136.631911 C640.868543,138.771132 632.745436,140 624.06662,140 C609.664991,140 596.793571,136.616179 588.270232,131.303934 L588.270229,131.303932 L588.270229,131.303932 Z" id="cloud2" fill="#F5F5F5" sketch:type="MSShapeGroup"></path>
        <path d="M971.491067,206.080957 C964.123186,211.065975 955.095891,214 945.343511,214 C920.507945,214 900.37474,194.972102 900.37474,171.5 C900.37474,148.027898 920.507945,129 945.343511,129 C952.273724,129 958.837784,130.481616 964.700413,133.127976 C972.296933,113.403092 987.182505,100 1004.30257,100 C1022.81019,100 1038.70644,115.663743 1045.60545,138.044817 C1066.04489,138.833353 1082.24844,149.928563 1082.24844,163.5 C1082.24844,177.142049 1065.87584,188.282036 1045.28607,188.966653 C1038.2247,210.806773 1022.5301,226 1004.30257,226 C991.360613,226 979.695589,218.340612 971.491067,206.080957 L971.491067,206.080957 L971.491067,206.080957 Z" id="cloud1" fill="#F5F5F5" sketch:type="MSShapeGroup"></path>
        <path d="M1441,139.320391 C1430.18988,142.368996 1418.78541,144 1407,144 C1337.96441,144 1282,88.0355937 1282,19 C1282,12.540518 1282.48996,6.19547235 1283.43474,3.55271368e-15 L1441,0 L1441,139.320391 L1441,139.320391 Z" id="sun" fill="#FDD835" sketch:type="MSShapeGroup"></path>
        <path d="M1218.02457,-54.2978884 L1240.32653,86.1402573 L1225.4087,87.7081843 L1218.02457,-54.2978884 L1218.02457,-54.2978884 Z" id="ray1" fill="#FDD835" sketch:type="MSShapeGroup" transform="translate(1229.175552, 16.705148) rotate(-86.000000) translate(-1229.175552, -16.705148) "></path>
        <path d="M1208.31287,11.873696 L1266.20297,141.754357 L1252.19926,147.129876 L1208.31287,11.873696 L1208.31287,11.873696 Z" id="ray2" fill="#FDD835" sketch:type="MSShapeGroup" transform="translate(1237.257916, 79.501786) rotate(-86.000000) translate(-1237.257916, -79.501786) "></path>
        <path d="M1218.20028,84.0051594 L1320.5292,182.742398 L1309.5589,192.972373 L1218.20028,84.0051594 L1218.20028,84.0051594 Z" id="ray3" fill="#FDD835" sketch:type="MSShapeGroup" transform="translate(1269.364742, 138.488766) rotate(-86.000000) translate(-1269.364742, -138.488766) "></path>
        <path d="M1264.44843,144.300718 L1398.91809,190.540975 L1393.29899,204.448733 L1264.44843,144.300718 L1264.44843,144.300718 Z" id="ray4" fill="#FDD835" sketch:type="MSShapeGroup" transform="translate(1331.683262, 174.374726) rotate(-86.000000) translate(-1331.683262, -174.374726) "></path>
        <path d="M1329.05241,205.124252 L1469.85839,185.276676 L1471.16573,200.219597 L1329.05241,205.124252 L1329.05241,205.124252 Z" id="ray5" fill="#FDD835" sketch:type="MSShapeGroup" transform="translate(1400.109071, 195.200464) rotate(-86.000000) translate(-1400.109071, -195.200464) "></path>
        <path d="M963.84309,477.111401 C965.041367,476.646445 985.363713,462.054929 1001.99746,441.553541 C1018.47864,421.240189 1031.27345,395.070109 1032.26169,382.870226 C1033.40191,368.794193 1035.06146,354.241987 1025.39574,339.092362 C1022.89227,335.168529 995.40306,312.094492 971.648035,315.525569 C964.659527,316.534961 945.383548,333.276721 941.200125,352.307104 C939.223656,361.298059 942.254829,374.416966 948.538369,382.924282 C954.027932,390.356628 962.712706,394.065697 963.384927,391.089034 C964.319675,386.949868 956.179889,372.673009 956.116271,367.698383 C956.085941,365.326676 960.331155,347.554675 970.00209,342.258502 C979.009216,337.325855 993.458611,344.741741 994.209888,345.389149 C1003.338,353.255253 1000.25882,376.359381 1000.25882,376.359381 C1000.25882,376.359381 991.275638,401.050013 977.540244,414.670979 C964.264752,427.835876 948.057736,437.466517 948.057736,437.466517 C940.556047,442.12634 963.619442,477.19818 963.84309,477.111401 L963.84309,477.111401 L963.84309,477.111401 Z" id="Tail" stroke="#000000" fill="#E5C06D" sketch:type="MSShapeGroup"></path>
        <path d="M884.552045,635.515625 C884.377642,619.983677 880.646056,601.401732 878.583533,599.265625 C875.057512,595.613808 864.571617,601.96859 855.91748,601.683594 C855.62181,618.472333 853.998742,619.337888 851.785435,624.708985 C849.572128,630.080081 845.40527,639.078256 854.633067,649.708985 C860.38545,656.33592 867.757056,657.40622 873.675507,657.470703 C877.251256,657.509662 880.663393,656.910531 882.911281,654.672851 C884.055213,648.881232 884.624892,642.003232 884.552045,635.515625 L884.552045,635.515625 L884.552045,635.515625 Z" id="Back_foot" stroke="#000000" fill="#D4B263" sketch:type="MSShapeGroup"></path>
        <path d="M795.445654,487.30664 C795.445654,513.941405 792.510746,513.218974 790.976102,554.427734 C789.441457,595.636495 791.560485,622.247393 790.976102,638.880859 C790.391718,655.514325 788.044543,664.837888 785.831237,670.208984 C783.61793,675.580081 779.451072,684.578255 788.678869,695.208984 C797.906666,705.839713 811.881505,701.824222 811.881505,701.824222 C811.881505,701.824222 821.314411,701.150393 827.282921,695.208987 C833.251431,689.267581 836.979311,682.990237 833.251431,670.208987 C831.476165,664.122386 827.124357,649.636868 827.282919,635.515625 C827.457322,619.983677 831.188908,601.401732 833.251431,599.265625 C837.374396,594.995567 845.798227,601.350349 855.91748,601.683594 C864.571617,601.96859 875.057512,595.613808 878.583533,599.265625 C880.646056,601.401732 884.377642,619.983677 884.552045,635.515625 C884.710607,649.636868 880.358799,664.122386 878.583533,670.208987 C874.855653,682.990237 878.583533,689.267581 884.552043,695.208987 C890.520553,701.150393 899.953459,701.824222 899.953459,701.824222 C899.953459,701.824222 913.928298,705.839713 923.156095,695.208984 C932.383893,684.578255 928.217034,675.580081 926.003727,670.208984 C923.790421,664.837888 921.443246,655.514325 920.858863,638.880859 C920.549283,630.069201 915.70229,597.357418 921.871678,577.816401 C927.348034,560.470508 943.670607,555.442761 947.002515,557.562502 C952.311118,560.939804 950.477141,587.42382 950.506243,590.015625 C950.664806,604.136868 946.312997,618.622386 944.537732,624.708987 C940.809852,637.490237 944.537732,643.767581 950.506242,649.708987 C956.474751,655.650393 965.907657,656.324222 965.907657,656.324222 C965.907657,656.324222 979.882497,660.339713 989.110294,649.708984 C998.338091,639.078255 994.171233,630.080081 991.957926,624.708984 C989.744619,619.337888 987.397444,610.014325 986.813061,593.380859 C986.228677,576.747393 988.767822,523.595381 989.110294,508.927734 C989.221155,504.179669 990.954863,457.231155 978.824167,445.509765 C969.609737,436.606244 956.50321,435.183016 945.185898,436.180502 C932.384097,437.308828 913.900499,443.49414 913.900499,443.49414 C910.470734,463.250335 907.437862,492.582066 900.00763,505.673523 C897.061229,510.864839 887.349052,521.471872 876.23955,526.891016 C875.175594,527.410007 862.295836,533.602406 848.596198,534.266194 C842.847046,534.544757 832.357963,532.70892 824.608021,529.016601 C816.556622,525.180659 811.320564,519.44574 809.74139,517.704101 C802.707236,509.946275 795.551235,493.855296 795.545194,488.659183" id="Body" stroke="#000000" fill="#E5C06D" sketch:type="MSShapeGroup"></path>
        <path d="M795.196135,488.121206 C798.909094,495.890368 813.237373,512.940931 831.177675,517.704101 C850.32507,522.787757 873.262246,515.171441 881.131718,509.939845 C887.450194,505.739346 896.462197,497.038686 901.674563,485.210014 C909.036627,468.502927 913.099126,447.699483 913.099126,443 C910.470734,463.250335 907.437862,492.582066 900.00763,505.673523 C897.061229,510.86484 887.349052,521.471872 876.23955,526.891016 C875.175594,527.410007 862.295836,533.602406 848.596198,534.266194 C842.847046,534.544757 832.357963,532.70892 824.608021,529.016601 C816.556622,525.18066 811.320564,519.445741 809.74139,517.704101 C802.707236,509.946275 795.551235,493.855296 795.545194,488.659184" id="Collar" stroke="#000000" fill="#000000" sketch:type="MSShapeGroup"></path>
        <path d="M795.196135,488.121206 C798.909094,495.890368 813.237373,512.94093 831.177675,517.704101 C850.32507,522.787757 873.262246,515.171441 881.131718,509.939845 C887.450194,505.739346 896.462197,497.038686 901.674563,485.210013 C909.036627,468.502926 913.099126,447.699483 913.099126,443 C909.858395,439.604663 892.928809,426.864922 876.286264,419.37874 C864.503287,414.078499 851.988226,413.647043 844.483952,414.756285 C835.137603,416.137813 812.999185,425.836412 802.169167,442.43531 C792.021896,457.987777 792.775045,480.252962 795.210755,488.512754" id="Neck" stroke="#000000" fill="#E5C06D" sketch:type="MSShapeGroup"></path>
        <path d="M779.71534,383.750357 C781.05727,376.240754 785.53798,361.501855 793.504897,348.726535 C800.47698,337.546478 810.610213,328.127449 817.129359,322.961107 C831.097853,311.891246 840.391279,308.254042 850.52177,307.831328 C860.652262,307.408616 874.882126,316.775945 882.45552,319.275401 C890.028914,321.774858 913.345126,323.589176 921.885805,332.615942 C930.426484,341.642708 930.961548,342.310373 935.101684,354.571697 C939.241821,366.833021 941.844771,408.835627 932.294003,428.27434 C928.367517,436.265933 918.483203,451.199817 904.355382,460.812147 C887.914693,471.998111 867.014682,477.277051 863.080035,476.222767 C855.764266,474.262513 785.597355,432.559902 785.597355,432.559902 C779.811396,422.763741 777.199045,397.831833 779.71534,383.750357 L779.71534,383.750357 L779.71534,383.750357 Z" id="Head" stroke="#000000" fill="#E5C06D" sketch:type="MSShapeGroup"></path>
        <path d="M819.373033,401.750926 C819.373033,401.750926 805.295257,418.003129 798.331107,421.618566 C789.404689,426.252716 781.841397,435.910498 778.870423,446.998322 C776.484661,455.902109 775.363615,467.25142 782.540286,472.806046 C789.716957,478.360671 796.484674,473.827867 809.170538,477.227034 C818.759518,479.796393 819.847899,492.635691 837.130832,494.168527 C848.517878,495.178452 863.259607,484.967607 865.127851,469.443663 C866.996096,453.919719 859.606044,432.384884 859.424779,428.691301 C859.066177,421.384173 860.306014,416.628467 860.306014,416.628467" id="Snout" stroke="#000000" fill="#E5C06D" sketch:type="MSShapeGroup"></path>
        <path d="M830.108985,492.699818 C819.298688,488.866904 817.25815,479.394103 809.170538,477.227034 C800.950825,475.024568 795.215725,476.152181 790.244107,475.708131 C789.909536,475.582868 793.780219,487.302871 805.799512,491.595104 C817.818807,495.887337 830.983569,492.870292 830.983569,492.870292" id="Mouth" stroke="#000000" fill="#E5C06D" sketch:type="MSShapeGroup"></path>
        <path d="M797.010409,364.813959 C795.108038,366.17814 792.813669,372.213276 794.775229,377.487486 C795.863599,380.413879 801.435908,386.081173 808.341819,387.652137 C815.441474,389.575496 821.621059,387.58508 823.280932,383.856946 C825.282081,379.362293 820.053483,372.158274 814.963626,367.160674 C813.217578,365.446273 810.362145,364.559685 810.362145,364.559685 C805.076198,362.920276 799.115885,363.304132 797.010409,364.813959 L797.010409,364.813959 L797.010409,364.813959 Z" id="R_eye" stroke="#000000" fill="#F3E9D3" sketch:type="MSShapeGroup"></path>
        <path d="M818.548559,371.304262 C817.364397,369.846884 816.070565,368.450556 814.78574,367.194201 C813.041164,365.488282 810.190434,364.603742 810.190434,364.603742 C808.895399,364.202358 807.559981,363.922018 806.250962,363.749623 C803.614642,365.568258 801.215086,369.061008 800.052427,373.400111 C799.030223,377.215029 799.163136,380.941429 800.203083,383.841305 C802.328172,385.348241 805.133679,386.852842 808.201835,387.551379 C809.277499,387.84277 810.331905,388.044546 811.352507,388.164251 C814.12461,386.305502 816.679954,382.702494 817.891716,378.180134 C818.567593,375.657728 818.738476,373.174021 818.476078,370.942339" id="R_pupil" stroke="#000000" fill="#000000" sketch:type="MSShapeGroup"></path>
        <path d="M909.778013,407.105422 C909.843172,409.494773 905.648633,415.367195 898.464539,417.07561 C894.50696,418.016744 884.401022,417.337343 878.081079,413.510546 C871.896713,409.765841 869.338082,404.172458 870.855281,400.41726 C873.311897,394.33692 888.800236,393.435855 894.354296,394.953273 C899.030929,396.230971 909.616944,401.199158 909.778013,407.105422 L909.778013,407.105422 L909.778013,407.105422 Z" id="L_eye" stroke="#000000" fill="#F3E9D3" sketch:type="MSShapeGroup"></path>
        <path d="M891.45549,417.118346 C893.979676,415.162491 896.094337,411.855222 897.099015,407.825675 C898.285359,403.067512 897.632377,398.47197 895.672046,395.495065 C894.98244,395.24896 894.529401,395.11848 894.121472,395.014695 C891.904177,394.450571 888.129411,394.278336 884.239914,394.650647 C881.934605,396.550476 880.072343,399.644963 879.148545,403.35012 C878.161027,407.310834 878.447973,411.158871 879.702553,414.054439 C883.198231,415.794022 887.899539,416.699128 891.895481,416.952652" id="L_pupil" stroke="#000000" fill="#000000" sketch:type="MSShapeGroup"></path>
        <path d="M816.360299,465.007445 C826.239498,467.654569 837.157235,464.387912 841.768322,457.422698 C846.379411,450.457481 836.608122,437.622464 824.56289,434.394954 C812.517658,431.167443 796.352686,436.046469 798.148677,445.734849 C799.944668,455.423228 806.481098,462.360321 816.360299,465.007445 L816.360299,465.007445 L816.360299,465.007445 Z" id="Nose" stroke="#000000" fill="#000000" sketch:type="MSShapeGroup"></path>
        <path d="M747.260635,327.876497 C751.85259,325.345705 760.371419,319.900871 767.36454,316.355959 C772.216767,313.896297 784.466001,307.102887 794.133636,307.871175 C802.708181,308.552595 808.595089,316.119725 815.549239,324.145244 C809.055701,329.499878 799.889056,338.348144 793.432958,348.707259 C791.387348,351.989535 789.571572,355.401338 787.979783,358.786814 C787.939786,358.872116 775.480127,345.631404 768.754442,340.515471 C762.131482,335.477676 747.182864,327.802369 747.182864,327.802369" id="R_ear_b" stroke="#000000" fill="#D4B263" sketch:type="MSShapeGroup"></path>
        <path d="M815.270572,324.375825 C815.885165,323.865547 816.477027,323.385608 817.041747,322.937632 C827.6428,314.528122 835.548631,310.406305 843.172236,308.723776 C840.619611,302.809253 830.289077,294.190777 824.286458,290.362901 C818.28384,286.535025 817.005197,278.715871 793.580955,288.821207 C770.156714,298.926544 761.064247,303.678729 749.560095,311.585273 C739.955116,318.186559 740.036309,317.200869 735.997046,318.934698 C731.957784,320.668526 726.50058,319.963043 724.38315,322.39232 C722.045394,325.074373 723.529255,328.46819 729.021165,329.939742 C731.766289,330.675294 738.249787,331.676584 744.876331,329.065323 C748.071462,327.806247 758.849126,320.672543 767.36454,316.355959 C772.216767,313.896297 784.466001,307.102887 794.133636,307.871175 C802.708181,308.552595 808.595089,316.119725 815.285418,323.955234" id="R_ear" stroke="#000000" fill="#E5C06D" sketch:type="MSShapeGroup"></path>
        <path d="M936.22557,415.788944 C936.22557,415.788944 938.030526,413.424198 941.517753,412.656306 C945.00498,411.888416 945.373434,412.246972 945.373434,412.246972 C948.02547,397.359349 947.055231,385.469929 946.593698,377.825965 C946.1204,369.987147 945.721081,368.764842 944.388873,366.859169 C942.411362,364.030418 935.281568,366.437873 937.781359,366.097432 C939.028884,379.599544 939.441716,399.814147 936.198511,415.406324" id="L_ear_b" stroke="#000000" fill="#D4B263" sketch:type="MSShapeGroup"></path>
        <path d="M937.243138,366.031568 C936.602133,361.158698 935.785203,357.155227 934.895566,354.516468 C931.201942,343.560768 930.244422,341.324801 924.023854,334.647215 C926.725425,333.070543 931.738865,328.262607 938.275223,327.51685 C941.64638,327.132222 945.679118,329.909688 947.866141,331.496079 C954.293595,336.158333 955.33153,338.388711 966.186066,350.830006 C977.040601,363.271301 986.837793,376.991801 993.571352,385.790739 C1000.30491,394.589676 1002.20043,398.145273 1001.02355,405.987783 C999.846666,413.830295 994.411332,420.45138 992.497046,423.348592 C987.244209,431.298596 976.044235,443.153304 962.607328,447.559099 C949.17042,451.964894 942.840149,452.330156 940.166233,451.613682 C937.492317,450.897209 936.027525,450.504719 935.253625,446.744657 C934.479724,442.984596 938.585953,438.165381 943.482031,419.89297 C948.378109,401.620559 947.135449,386.798513 946.593698,377.825965 C946.1204,369.987147 945.721081,368.764842 944.388873,366.859169 C942.411362,364.030418 935.281568,366.437873 937.781359,366.097432" id="L_ear" stroke="#000000" fill="#E5C06D" sketch:type="MSShapeGroup"></path>
    </g>
</svg>