<?xml version="1.0" encoding="UTF-8" standalone="no"?>
<svg width="1440px" height="720px" viewBox="0 0 1440 720" version="1.1" xmlns="http://www.w3.org/2000/svg" xmlns:xlink="http://www.w3.org/1999/xlink" xmlns:sketch="http://www.bohemiancoding.com/sketch/ns">
    <!-- Generator: Sketch 3.2.2 (9983) - http://www.bohemiancoding.com/sketch -->
    <title>Untitled</title>
    <desc>Created with Sketch.</desc>
    <defs></defs>
    <g id="Page-1" stroke="none" stroke-width="1" fill="none" fill-rule="evenodd" sketch:type="MSPage">
        <rect id="sky" fill="#90CAF9" sketch:type="MSShapeGroup" x="0.999306037" y="0" width="1440.00073" height="720"></rect>
        <path d="M1441.00004,663.000342 L1441.00004,606.000684 C1338.98056,614.697823 1252.92282,633.091017 1197.67684,657.17313 L1197.67684,657.17313 C1164.42941,637.066671 1115.66208,624.375 1061.31235,624.375 C991.05533,624.375 930.126686,645.583178 899.992538,676.600861 L899.992538,676.600861 C859.088517,640.798182 769.138005,615.9375 664.749644,615.9375 C572.57805,615.9375 491.662675,635.3197 445.827789,664.502606 C403.37257,624.005549 316.466528,596.25 216.155665,596.25 C126.187443,596.25 47.0023124,618.577093 0.999306037,652.398968 L0.999306037,720 L1441.00004,720 L1441.00004,663.000342 L1441.00004,663.000342 Z" id="grass" fill="#AED581" sketch:type="MSShapeGroup"></path>
        <path d="M249.70706,95.2909931 C243.753963,69.0498689 225.925801,50 204.857738,50 C184.393864,50 166.986729,67.972912 160.54968,93.0513871 C159.668316,93.017254 158.781726,93 157.890354,93 C126.431969,93 100.92991,114.490332 100.92991,141 C100.92991,164.059978 120.226672,183.321951 145.955019,187.944563 L145.955019,187.944563 C151.620886,209.008271 179.416443,225 212.852186,225 C250.381487,225 280.804997,204.852814 280.804997,180 C280.804997,179.851417 280.803909,179.703001 280.801739,179.554758 C309.617818,176.50578 331.769604,158.16723 331.769604,136 C331.769604,111.699471 305.149034,92 272.310895,92 C264.308643,92 256.675614,93.1698278 249.70706,95.2909931 L249.70706,95.2909931 L249.70706,95.2909931 Z" id="cloud3" fill="#F5F5F5" sketch:type="MSShapeGroup"></path>
        <path d="M588.270229,131.303932 C581.081771,132.399455 573.271938,133 565.107564,133 C529.509918,133 500.652325,121.583261 500.652325,107.5 C500.652325,93.4167389 529.509918,82 565.107564,82 C565.892737,82 566.674631,82.0055543 567.453009,82.016569 C566.246908,78.486979 565.607217,74.7972202 565.607217,71 C565.607217,45.5949015 594.241109,25 629.562804,25 C664.884499,25 693.51839,45.5949015 693.51839,71 C693.51839,74.8316234 692.867055,78.5538293 691.639677,82.1124648 L691.639677,82.1124648 C693.248137,82.0379692 694.874516,82 696.516308,82 C729.630397,82 756.47467,97.4461761 756.47467,116.5 C756.47467,135.553824 729.630397,151 696.516308,151 C676.460293,151 658.704229,145.333895 647.819248,136.631911 C640.868543,138.771132 632.745436,140 624.06662,140 C609.664991,140 596.793571,136.616179 588.270232,131.303934 L588.270229,131.303932 L588.270229,131.303932 Z" id="cloud2" fill="#F5F5F5" sketch:type="MSShapeGroup"></path>
        <path d="M971.491067,206.080957 C964.123186,211.065975 955.095891,214 945.343511,214 C920.507945,214 900.37474,194.972102 900.37474,171.5 C900.37474,148.027898 920.507945,129 945.343511,129 C952.273724,129 958.837784,130.481616 964.700413,133.127976 C972.296933,113.403092 987.182505,100 1004.30257,100 C1022.81019,100 1038.70644,115.663743 1045.60545,138.044817 C1066.04489,138.833353 1082.24844,149.928563 1082.24844,163.5 C1082.24844,177.142049 1065.87584,188.282036 1045.28607,188.966653 C1038.2247,210.806773 1022.5301,226 1004.30257,226 C991.360613,226 979.695589,218.340612 971.491067,206.080957 L971.491067,206.080957 L971.491067,206.080957 Z" id="cloud1" fill="#F5F5F5" sketch:type="MSShapeGroup"></path>
        <path d="M1441,139.320391 C1430.18988,142.368996 1418.78541,144 1407,144 C1337.96441,144 1282,88.0355937 1282,19 C1282,12.540518 1282.48996,6.19547235 1283.43474,3.55271368e-15 L1441,0 L1441,139.320391 L1441,139.320391 Z" id="sun" fill="#FDD835" sketch:type="MSShapeGroup"></path>
        <path d="M1218.02457,-54.2978884 L1240.32653,86.1402573 L1225.4087,87.7081843 L1218.02457,-54.2978884 L1218.02457,-54.2978884 Z" id="ray1" fill="#FDD835" sketch:type="MSShapeGroup" transform="translate(1229.175552, 16.705148) rotate(-86.000000) translate(-1229.175552, -16.705148) "></path>
        <path d="M1208.31287,11.873696 L1266.20297,141.754357 L1252.19926,147.129876 L1208.31287,11.873696 L1208.31287,11.873696 Z" id="ray2" fill="#FDD835" sketch:type="MSShapeGroup" transform="translate(1237.257916, 79.501786) rotate(-86.000000) translate(-1237.257916, -79.501786) "></path>
        <path d="M1218.20028,84.0051594 L1320.5292,182.742398 L1309.5589,192.972373 L1218.20028,84.0051594 L1218.20028,84.0051594 Z" id="ray3" fill="#FDD835" sketch:type="MSShapeGroup" transform="translate(1269.364742, 138.488766) rotate(-86.000000) translate(-1269.364742, -138.488766) "></path>
        <path d="M1264.44843,144.300718 L1398.91809,190.540975 L1393.29899,204.448733 L1264.44843,144.300718 L1264.44843,144.300718 Z" id="ray4" fill="#FDD835" sketch:type="MSShapeGroup" transform="translate(1331.683262, 174.374726) rotate(-86.000000) translate(-1331.683262, -174.374726) "></path>
        <path d="M1329.05241,205.124252 L1469.85839,185.276676 L1471.16573,200.219597 L1329.05241,205.124252 L1329.05241,205.124252 Z" id="ray5" fill="#FDD835" sketch:type="MSShapeGroup" transform="translate(1400.109071, 195.200464) rotate(-86.000000) translate(-1400.109071, -195.200464) "></path>
        <path d="M963.84309,477.111401 C965.041367,476.646445 985.363713,462.054929 1001.99746,441.553541 C1018.47864,421.240189 1031.27345,395.070109 1032.26169,382.870226 C1033.40191,368.794193 1035.06146,354.241987 1025.39574,339.092362 C1022.89227,335.168529 995.40306,312.094492 971.648035,315.525569 C964.659527,316.534961 945.383548,333.276721 941.200125,352.307104 C939.223656,361.298059 942.254829,374.416966 948.538369,382.924282 C954.027932,390.356628 962.712706,394.065697 963.384927,391.089034 C964.319675,386.949868 956.179889,372.673009 956.116271,367.698383 C956.085941,365.326676 960.331155,347.554675 970.00209,342.258502 C979.009216,337.325855 993.458611,344.741741 994.209888,345.389149 C1003.338,353.255253 1000.25882,376.359381 1000.25882,376.359381 C1000.25882,376.359381 991.275638,401.050013 977.540244,414.670979 C964.264752,427.835876 948.057736,437.466517 948.057736,437.466517 C940.556047,442.12634 963.619442,477.19818 963.84309,477.111401 L963.84309,477.111401 L963.84309,477.111401 Z" id="Tail" stroke="#000000" fill="#E5C06D" sketch:type="MSShapeGroup"></path>
        <path d="M884.552045,635.515625 C884.377642,619.983677 880.646056,601.401732 878.583533,599.265625 C875.057512,595.613808 864.571617,601.96859 855.91748,601.683594 C855.62181,618.472333 853.998742,619.337888 851.785435,624.708985 C849.572128,630.080081 845.40527,639.078256 854.633067,649.708985 C860.38545,656.33592 867.757056,657.40622 873.675507,657.470703 C877.251256,657.509662 880.663393,656.910531 882.911281,654.672851 C884.055213,648.881232 884.624892,642.003232 884.552045,635.515625 L884.552045,635.515625 L884.552045,635.515625 Z" id="Back_foot" stroke="#000000" fill="#D4B263" sketch:type="MSShapeGroup"></path>
        <path d="M795.445654,487.30664 C795.445654,513.941405 792.510746,513.218974 790.976102,554.427734 C789.441457,595.636495 791.560485,622.247393 790.976102,638.880859 C790.391718,655.514325 788.044543,664.837888 785.831237,670.208984 C783.61793,675.580081 779.451072,684.578255 788.678869,695.208984 C797.906666,705.839713 811.881505,701.824222 811.881505,701.824222 C811.881505,701.824222 821.314411,701.150393 827.282921,695.208987 C833.251431,689.267581 836.979311,682.990237 833.251431,670.208987 C831.476165,664.122386 827.124357,649.636868 827.282919,635.515625 C827.457322,619.983677 831.188908,601.401732 833.251431,599.265625 C837.374396,594.995567 845.798227,601.350349 855.91748,601.683594 C864.571617,601.96859 875.057512,595.613808 878.583533,599.265625 C880.646056,601.401732 884.377642,619.983677 884.552045,635.515625 C884.710607,649.636868 880.358799,664.122386 878.583533,670.208987 C874.855653,682.990237 878.583533,689.267581 884.552043,695.208987 C890.520553,701.150393 899.953459,701.824222 899.953459,701.824222 C899.953459,701.824222 913.928298,705.839713 923.156095,695.208984 C932.383893,684.578255 928.217034,675.580081 926.003727,670.208984 C923.790421,664.837888 921.443246,655.514325 920.858863,638.880859 C920.549283,630.069201 915.70229,597.357418 921.871678,577.816401 C927.348034,560.470508 943.670607,555.442761 947.002515,557.562502 C952.311118,560.939804 950.477141,587.42382 950.506243,590.015625 C950.664806,604.136868 946.312997,618.622386 944.537732,624.708987 C940.809852,637.490237 944.537732,643.767581 950.506242,649.708987 C956.474751,655.650393 965.907657,656.324222 965.907657,656.324222 C965.907657,656.324222 979.882497,660.339713 989.110294,649.708984 C998.338091,639.078255 994.171233,630.080081 991.957926,624.708984 C989.744619,619.337888 987.397444,610.014325 986.813061,593.380859 C986.228677,576.747393 988.767822,523.595381 989.110294,508.927734 C989.221155,504.179669 990.954863,457.231155 978.824167,445.509765 C969.609737,436.606244 956.50321,435.183016 945.185898,436.180502 C932.384097,437.308828 913.900499,443.49414 913.900499,443.49414 C910.470734,463.250335 907.437862,492.582066 900.00763,505.673523 C897.061229,510.864839 887.349052,521.471872 876.23955,526.891016 C875.175594,527.410007 862.295836,533.602406 848.596198,534.266194 C842.847046,534.544757 832.357963,532.70892 824.608021,529.016601 C816.556622,525.180659 811.320564,519.44574 809.74139,517.704101 C802.707236,509.946275 795.551235,493.855296 795.545194,488.659183" id="Body" stroke="#000000" fill="#E5C06D" sketch:type="MSShapeGroup"></path>
        <path d="M795.196135,488.121206 C798.909094,495.890368 813.237373,512.940931 831.177675,517.704101 C850.32507,522.787757 873.262246,515.171441 881.131718,509.939845 C887.450194,505.739346 896.462197,497.038686 901.674563,485.210014 C909.036627,468.502927 913.099126,447.699483 913.099126,443 C910.470734,463.250335 907.437862,492.582066 900.00763,505.673523 C897.061229,510.86484 887.349052,521.471872 876.23955,526.891016 C875.175594,527.410007 862.295836,533.602406 848.596198,534.266194 C842.847046,534.544757 832.357963,532.70892 824.608021,529.016601 C816.556622,525.18066 811.320564,519.445741 809.74139,517.704101 C802.707236,509.946275 795.551235,493.855296 795.545194,488.659184" id="Collar" stroke="#000000" fill="#000000" sketch:type="MSShapeGroup"></path>
        <path d="M795.196135,488.121206 C798.909094,495.890368 813.237373,512.94093 831.177675,517.704101 C850.32507,522.787757 873.262246,515.171441 881.131718,509.939845 C887.450194,505.739346 896.462197,497.038686 901.674563,485.210013 C909.036627,468.502926 913.099126,447.699483 913.099126,443 C909.858395,439.604663 892.928809,426.864922 876.286264,419.37874 C864.503287,414.078499 851.988226,413.647043 844.483952,414.756285 C835.137603,416.137813 812.999185,425.836412 802.169167,442.43531 C792.021896,457.987777 792.775045,480.252962 795.210755,488.512754" id="Neck" stroke="#000000" fill="#E5C06D" sketch:type="MSShapeGroup"></path>
        <path d="M759.839555,423.443091 C757.122083,416.31496 753.371706,401.373521 753.620911,386.31967 C753.838997,373.145602 757.673715,359.852917 760.60085,352.06689 C766.872787,335.38386 772.965509,327.4797 781.431321,321.899775 C789.897135,316.319851 806.91904,317.020297 814.698021,315.262163 C822.477001,313.504029 843.397339,303.050466 855.367258,306.38914 C867.337177,309.727814 868.139689,310.024536 878.003528,318.402215 C887.867366,326.779893 911.731471,361.442535 913.556542,383.023772 C914.306862,391.896195 913.52587,409.78783 906.366679,425.303571 C898.035456,443.359394 882.839505,458.64863 878.923858,459.771425 C871.643414,461.85906 790.0202,462.251576 790.0202,462.251576 C780.01527,456.834616 764.935166,436.809259 759.839555,423.443091 L759.839555,423.443091 L759.839555,423.443091 Z" id="Head" stroke="#000000" fill="#E5C06D" sketch:type="MSShapeGroup"></path>
        <path d="M803.103811,418.447368 C803.103811,418.447368 799.407305,439.628817 795.299952,446.314653 C790.035281,454.88434 788.5264,467.058058 791.69043,478.092344 C794.231222,486.953137 799.115626,497.258776 808.128077,498.323761 C817.140528,499.388745 820.607027,492.017742 833.231636,488.397693 C842.774313,485.661375 850.319965,496.106244 865.923799,488.518771 C876.204553,483.519684 883.581707,467.17473 877.187682,452.905896 C870.793659,438.637061 853.367887,423.984263 851.310177,420.911603 C847.239346,414.832865 845.852724,410.117867 845.852724,410.117867" id="Snout" stroke="#000000" fill="#E5C06D" sketch:type="MSShapeGroup"></path>
        <path d="M859.148461,490.876361 C847.90813,493.158627 841.280195,486.089806 833.231636,488.397693 C825.051612,490.743277 820.716436,494.663624 816.226225,496.843573 C815.874926,496.908518 825.228996,504.960972 837.742206,502.44974 C850.255415,499.938507 859.985926,490.572041 859.985926,490.572041" id="Mouth" stroke="#000000" fill="#E5C06D" sketch:type="MSShapeGroup"></path>
        <path d="M764.911356,398.303811 C763.983312,400.452936 765.124979,406.807745 769.522782,410.318347 C771.962901,412.266203 779.658175,414.254071 786.386802,412.043843 C793.462997,410.035891 797.734796,405.14705 797.237454,401.096517 C796.637855,396.213181 788.445728,392.731057 781.508915,391.068748 C779.129278,390.498502 776.225068,391.209204 776.225068,391.209204 C770.849769,392.52642 765.938484,395.925237 764.911356,398.303811 L764.911356,398.303811 L764.911356,398.303811 Z" id="R_eye" stroke="#000000" fill="#F3E9D3" sketch:type="MSShapeGroup"></path>
        <path d="M786.715908,392.774119 C784.950278,392.134792 783.122085,391.604277 781.373705,391.189104 C778.999698,390.625369 776.100574,391.335405 776.100574,391.335405 C774.783784,391.658344 773.494721,392.105837 772.283883,392.63226 C770.960783,395.54894 770.702861,399.778674 771.941071,404.096825 C773.029698,407.893321 775.062865,411.019015 777.44782,412.969081 C780.045506,413.166276 783.225222,413.011027 786.214918,412.029574 C787.28702,411.725337 788.294745,411.355233 789.231223,410.932192 C790.650053,407.911194 790.984724,403.506714 789.69422,399.006191 C788.974424,396.495965 787.841696,394.279001 786.467376,392.501222" id="R_pupil" stroke="#000000" fill="#000000" sketch:type="MSShapeGroup"></path>
        <path d="M883.353773,376.475061 C884.640232,378.489575 884.069332,385.68357 878.79126,390.84805 C875.883672,393.693063 866.871275,398.315645 859.48308,398.290452 C852.253378,398.265797 847.179399,394.789124 846.545822,390.788876 C845.519946,384.311756 858.331961,375.562309 863.874248,374.002438 C868.540969,372.688994 880.173759,371.495361 883.353773,376.475061 L883.353773,376.475061 L883.353773,376.475061 Z" id="L_eye" stroke="#000000" fill="#F3E9D3" sketch:type="MSShapeGroup"></path>
        <path d="M872.805343,394.494609 C873.961653,391.518061 874.070901,387.594048 872.856708,383.622605 C871.422968,378.933051 868.496374,375.330213 865.282824,373.788152 C864.564962,373.932373 864.10943,374.053862 863.706314,374.174999 C861.515175,374.833443 858.190862,376.629957 855.048666,378.952328 C854.051115,381.768121 854.048624,385.37975 855.165071,389.031481 C856.358522,392.935085 858.586368,396.085708 861.153081,397.921538 C865.045413,397.612244 869.541384,395.966719 873.09715,394.125969" id="L_pupil" stroke="#000000" fill="#000000" sketch:type="MSShapeGroup"></path>
        <path d="M833.10091,474.220461 C842.932406,471.401325 850.608281,462.978204 850.973403,454.632964 C851.338526,446.287722 836.352374,440.318551 824.365304,443.755788 C812.378234,447.193025 801.035033,459.700742 807.564382,467.080301 C814.093731,474.459859 823.269413,477.039598 833.10091,474.220461 L833.10091,474.220461 L833.10091,474.220461 Z" id="Nose" stroke="#000000" fill="#000000" sketch:type="MSShapeGroup"></path>
        <path d="M703.243278,392.265255 C705.875898,387.730911 710.373662,378.676256 714.542173,372.035949 C717.434523,367.428526 724.435301,355.296615 733.117779,350.975966 C740.818556,347.14384 749.761981,350.598155 759.856299,353.895716 C757.048091,361.829952 753.747937,374.135567 753.549319,386.340198 C753.486386,390.207225 753.687171,394.066905 754.066391,397.788656 C754.07604,397.882374 736.576557,392.950068 728.176619,392.028841 C719.904978,391.121684 703.138436,392.241769 703.138436,392.241769" id="R_ear_b" stroke="#000000" fill="#D4B263" sketch:type="MSShapeGroup"></path>
        <path d="M759.736193,354.236886 C760.000189,353.482953 760.260327,352.766734 760.513662,352.091891 C765.26932,339.423588 769.923047,331.818698 775.591186,326.450042 C770.356954,322.695005 757.063115,320.628147 749.946365,320.438595 C742.829615,320.249042 737.706441,314.205268 722.832581,334.931608 C707.95872,355.657949 702.612511,364.414333 696.823699,377.11664 C691.990539,387.721977 691.552467,386.835258 688.983131,390.401814 C686.413795,393.968368 681.372707,396.17432 680.808886,399.347173 C680.186397,402.850175 683.20626,404.994998 688.67165,403.427822 C691.403518,402.64447 697.476663,400.163495 701.811821,394.512285 C703.902111,391.787432 709.466243,380.121746 714.542173,372.035949 C717.434523,367.428526 724.435301,355.296615 733.117779,350.975966 C740.818556,347.14384 749.761981,350.598155 759.532298,353.868723" id="R_ear" stroke="#000000" fill="#E5C06D" sketch:type="MSShapeGroup"></path>
        <path d="M910.496099,370.296792 C910.496099,370.296792 910.825314,367.340189 913.418958,364.885922 C916.012602,362.431657 916.513098,362.549232 916.513098,362.549232 C911.118644,348.422149 904.163482,338.730637 899.830939,332.416188 C895.387954,325.940777 894.416138,325.098721 892.292718,324.151378 C889.140746,322.745159 884.269251,328.480865 886.23665,326.901563 C894.260089,337.832609 905.025245,354.947282 910.27584,369.98276" id="L_ear_b" stroke="#000000" fill="#D4B263" sketch:type="MSShapeGroup"></path>
        <path d="M885.741381,327.122311 C882.682219,323.275588 879.920034,320.264694 877.798405,318.461033 C868.989748,310.972522 867.017385,309.549084 858.246107,307.029104 C859.749759,304.286221 861.570846,297.582903 866.789505,293.577191 C869.481052,291.511226 874.368284,291.814966 877.059981,292.048368 C884.970622,292.734316 887.009035,294.111547 902.72093,299.18532 C918.432823,304.259091 933.897235,310.973929 944.20081,315.048051 C954.504386,319.122172 957.960425,321.193653 960.990834,328.522134 C964.021243,335.850616 962.772363,344.325398 962.623674,347.794723 C962.215669,357.314617 958.721044,373.244499 949.472518,383.941521 C940.223992,394.638544 934.986015,398.211965 932.32501,398.974996 C929.664006,399.738027 928.206287,400.156021 925.60635,397.331607 C923.006413,394.507193 924.044059,388.261456 918.82983,370.077276 C913.6156,351.893096 904.916515,339.82814 899.830939,332.416188 C895.387954,325.940777 894.416138,325.098721 892.292718,324.151378 C889.140746,322.745159 884.269251,328.480865 886.23665,326.901563" id="L_ear" stroke="#000000" fill="#E5C06D" sketch:type="MSShapeGroup"></path>
    </g>
</svg>