<?xml version="1.0" encoding="UTF-8" standalone="no"?>
<svg width="1441px" height="720px" viewBox="0 0 1441 720" version="1.1" xmlns="http://www.w3.org/2000/svg" xmlns:xlink="http://www.w3.org/1999/xlink" xmlns:sketch="http://www.bohemiancoding.com/sketch/ns">
    <!-- Generator: Sketch 3.2.2 (9983) - http://www.bohemiancoding.com/sketch -->
    <title>Untitled</title>
    <desc>Created with Sketch.</desc>
    <defs></defs>
    <g id="Page-1" stroke="none" stroke-width="1" fill="none" fill-rule="evenodd" sketch:type="MSPage">
        <g id="fullscene" sketch:type="MSLayerGroup">
            <g id="background" sketch:type="MSShapeGroup">
                <g>
                    <rect id="sky" fill="#90CAF9" x="1" y="0" width="1440" height="720"></rect>
                    <path d="M1441,663.000342 L1441,606.000684 C1338.98057,614.697823 1252.92288,633.091017 1197.67693,657.17313 L1197.67693,657.17313 C1164.42951,637.066671 1115.66221,624.375 1061.3125,624.375 C991.05552,624.375 930.126907,645.583178 899.992775,676.600861 L899.992775,676.600861 C859.088775,640.798182 769.138308,615.9375 664.75,615.9375 C572.578453,615.9375 491.663119,635.3197 445.828257,664.502606 C403.373059,624.005549 316.467062,596.25 216.15625,596.25 C126.188073,596.25 47.002983,618.577093 1,652.398968 L1,720 L1441,720 L1441,663.000342 L1441,663.000342 Z" id="grass" fill="#AED581"></path>
                </g>
            </g>
            <g id="cloud1" transform="translate(101.000000, 50.000000)" fill="#F5F5F5" sketch:type="MSShapeGroup">
                <g id="Oval-5">
                    <path d="M148.880468,45.2909931 C142.923237,19.0498689 125.082694,0 104,0 C83.5219154,0 66.1026918,17.972912 59.6611725,43.0513871 C58.7791971,43.017254 57.8919913,43 57,43 C25.5197693,43 0,64.490332 0,91 C0,114.059978 19.3101627,133.321951 45.0563766,137.944563 L45.0563766,137.944563 C50.7261785,159.008271 78.5410376,175 112,175 C149.555363,175 180,154.852814 180,130 C180,129.851417 179.998912,129.703001 179.99674,129.554758 C208.83283,126.50578 231,108.16723 231,86 C231,61.699471 204.360943,42 171.5,42 C163.492191,42 155.853861,43.1698278 148.880468,45.2909931 L148.880468,45.2909931 L148.880468,45.2909931 Z"></path>
                </g>
            </g>
            <g id="cloud2" transform="translate(501.000000, 25.000000)" fill="#F5F5F5" sketch:type="MSShapeGroup">
                <g id="Oval-5">
                    <path d="M87.6787503,106.303932 C80.4853005,107.399455 72.6700439,108 64.5,108 C28.8776336,108 0,96.5832611 0,82.5 C0,68.4167389 28.8776336,57 64.5,57 C65.2857183,57 66.0681553,57.0055543 66.8470735,57.016569 C65.6401351,53.486979 65,49.7972202 65,46 C65,20.5949015 93.653776,0 129,0 C164.346224,0 193,20.5949015 193,46 C193,49.8316234 192.348213,53.5538293 191.119982,57.1124648 L191.119982,57.1124648 C192.729559,57.0379692 194.357068,57 196,57 C229.137085,57 256,72.4461761 256,91.5 C256,110.553824 229.137085,126 196,126 C175.930057,126 158.161662,120.333895 147.269122,111.631911 C140.313591,113.771132 132.184843,115 123.5,115 C109.088369,115 96.2080105,111.616179 87.678753,106.303934 L87.6787503,106.303932 L87.6787503,106.303932 Z"></path>
                </g>
            </g>
            <g id="cloud3" transform="translate(901.000000, 100.000000)" fill="#F5F5F5" sketch:type="MSShapeGroup">
                <g id="Oval-5">
                    <path d="M71.1657139,106.080957 C63.7927158,111.065975 54.7591524,114 45,114 C20.1471863,114 0,94.9721019 0,71.5 C0,48.0278981 20.1471863,29 45,29 C51.9350248,29 58.5036436,30.4816162 64.3703443,33.1279759 C71.9721389,13.4030921 86.8680481,0 104,0 C122.520475,0 138.427762,15.6637427 145.331567,38.0448174 C165.785196,38.8333526 182,49.9285629 182,63.5 C182,77.1420489 165.616027,88.2820364 145.011966,88.9666526 C137.945689,110.806773 122.24019,126 104,126 C91.0490574,126 79.3759333,118.340612 71.1657139,106.080957 L71.1657139,106.080957 L71.1657139,106.080957 Z"></path>
                </g>
            </g>
            <g id="sun" transform="translate(1281.000000, 0.000000)" fill="#FDD835" sketch:type="MSShapeGroup">
                <g id="Oval-1">
                    <path d="M159,139.320391 C148.189878,142.368996 136.78541,144 125,144 C55.9644063,144 0,88.0355937 0,19 C0,12.540518 0.489960605,6.19547235 1.43474499,3.55271368e-15 L159,0 L159,139.320391 L159,139.320391 Z"></path>
                </g>
            </g>
            <g id="sunrays" transform="translate(1141.000000, 0.000000)" fill="#FDD835" sketch:type="MSShapeGroup">
                <g id="Group">
                    <g transform="translate(145.115384, 134.217265) rotate(-86.000000) translate(-145.115384, -134.217265) translate(20.115384, -2.282735)">
                        <path d="M234.5,1 L242,143 L227,143 L234.5,1 Z" id="Triangle-1" transform="translate(234.500000, 72.000000) rotate(-6.000000) translate(-234.500000, -72.000000) "></path>
                        <path d="M172.648653,12.4912498 L180.148653,154.49125 L165.148653,154.49125 L172.648653,12.4912498 Z" id="Triangle-2" transform="translate(172.648653, 83.491250) rotate(-21.000000) translate(-172.648653, -83.491250) "></path>
                        <path d="M116.803379,47.4209747 L124.303379,189.420975 L109.303379,189.420975 L116.803379,47.4209747 Z" id="Triangle-3" transform="translate(116.803379, 118.420975) rotate(-43.000000) translate(-116.803379, -118.420975) "></path>
                        <path d="M86.6897572,111.171523 L94.1897572,253.171523 L79.1897572,253.171523 L86.6897572,111.171523 Z" id="Triangle-4" transform="translate(86.689757, 182.171523) rotate(-68.000000) translate(-86.689757, -182.171523) "></path>
                        <path d="M71.765831,188.096049 L79.265831,330.096049 L64.265831,330.096049 L71.765831,188.096049 Z" id="Triangle-5" transform="translate(71.765831, 259.096049) rotate(265.000000) translate(-71.765831, -259.096049) "></path>
                    </g>
                </g>
            </g>
            <g id="dog" transform="translate(701.000000, 297.000000)" stroke="#000000" sketch:type="MSShapeGroup">
                <g id="dog1" transform="translate(0.500000, 0.500000)">
                    <g id="Lala">
                        <path d="M278.290908,174.6906 C279.024834,173.635066 287.719384,150.174039 290.046768,123.876147 C292.352805,97.819455 288.323268,68.9687055 282.316299,58.3019275 C275.385553,45.9947661 268.6192,33.0024299 252.12294,25.8478265 C247.850322,23.9947467 212.133114,20.2372708 194.345596,36.3654048 C189.112673,41.1101522 182.48944,65.7686915 189.667861,83.8849345 C193.059326,92.4440015 202.915122,101.625058 212.888564,105.164231 C221.60178,108.256201 230.882309,106.474694 229.774308,103.631028 C228.233588,99.676799 213.49165,92.392457 210.655165,88.3038795 C209.30284,86.354606 202.879848,69.2470555 207.939345,59.448411 C212.65156,50.3223405 228.788761,48.390389 229.774308,48.5070065 C241.748837,49.923925 252.122941,70.7999735 252.122941,70.7999735 C252.122941,70.7999735 258.486789,96.292766 254.713761,115.265794 C251.067065,133.603548 243.010636,150.65056 243.010636,150.65056 C239.394684,158.708619 278.153927,174.887606 278.290908,174.6906 L278.290908,174.6906 Z" id="Tail" fill="#E5C06D"></path>
                        <path d="M183.666317,338.015625 C183.491794,322.483677 179.757616,303.901732 177.69366,301.765625 C174.165191,298.113808 163.672013,304.46859 155.011867,304.183594 C154.715992,320.972333 153.091796,321.837888 150.876953,327.208984 C148.662109,332.580081 144.492357,341.578256 153.726562,352.208984 C159.482939,358.835919 166.859666,359.90622 172.782226,359.970703 C176.360458,360.009662 179.774965,359.410531 182.024414,357.172851 C183.169141,351.381232 183.739215,344.503233 183.666317,338.015625 L183.666317,338.015625 Z" id="Back_foot" fill="#D4B263"></path>
                        <path d="M94.4980465,189.806641 C94.4980465,216.441406 91.5611005,215.718975 90.0253905,256.927734 C88.4896805,298.136495 90.61018,324.747393 90.0253905,341.380859 C89.4406015,358.014325 87.0917965,367.337888 84.876953,372.708984 C82.662109,378.080081 78.492357,387.078255 87.7265625,397.708984 C96.960768,408.339713 110.945312,404.324222 110.945312,404.324222 C110.945312,404.324222 120.384769,403.650393 126.357423,397.708987 C132.330078,391.767581 136.060547,385.490237 132.330078,372.708987 C130.553579,366.622387 126.198749,352.136868 126.357422,338.015625 C126.531945,322.483677 130.266123,303.901732 132.330078,301.765625 C136.455906,297.495567 144.885587,303.850349 155.011867,304.183594 C163.672014,304.46859 174.165191,298.113808 177.693661,301.765625 C179.757616,303.901732 183.491794,322.483677 183.666317,338.015625 C183.82499,352.136868 179.470159,366.622387 177.693661,372.708987 C173.963192,385.490237 177.693661,391.767581 183.666316,397.708987 C189.63897,403.650393 199.078427,404.324222 199.078427,404.324222 C199.078427,404.324222 213.062971,408.339713 222.297176,397.708984 C231.531382,387.078255 227.36163,378.080081 225.146786,372.708984 C222.931942,367.337888 220.583137,358.014325 219.998348,341.380859 C219.688553,332.569201 214.838194,299.857418 221.011867,280.316401 C226.492026,262.970508 242.825934,257.942761 246.160156,260.062502 C251.472445,263.439804 249.637195,289.92382 249.666317,292.515625 C249.82499,306.636868 245.470159,321.122387 243.693661,327.208987 C239.963192,339.990237 243.693661,346.267581 249.666316,352.208987 C255.63897,358.150394 265.078426,358.824222 265.078426,358.824222 C265.078426,358.824222 279.062971,362.839713 288.297176,352.208984 C297.531382,341.578256 293.36163,332.580081 291.146786,327.208984 C288.931942,321.837888 286.583137,312.514325 285.998348,295.880859 C285.413559,279.247393 287.954467,226.095381 288.297176,211.427735 C288.408115,206.679669 290.143026,159.731155 278.003906,148.009765 C268.783077,139.106244 255.667448,137.683016 244.342277,138.680502 C231.531586,139.808828 213.035152,145.99414 213.035152,145.99414 C209.603006,165.750335 206.568027,195.082066 199.132635,208.173523 C196.184188,213.36484 186.465267,223.971872 175.34805,229.391016 C174.283355,229.910007 161.394653,236.102406 147.685501,236.766194 C141.932356,237.044757 131.43599,235.208921 123.680665,231.516602 C115.623675,227.680659 110.383982,221.94574 108.803711,220.204102 C101.764672,212.446275 94.603701,196.355296 94.597656,191.159184" id="Body" fill="#E5C06D"></path>
                        <path d="M94.2483545,190.621206 C97.963892,198.390368 112.302121,215.440931 130.254882,220.204102 C149.415574,225.287757 172.368678,217.67144 180.243615,212.439845 C186.566478,208.239346 195.58474,199.538686 200.800725,187.710014 C208.167902,171.002927 212.233223,150.199483 212.233223,145.5 C209.603005,165.750335 206.568027,195.082066 199.132635,208.173523 C196.184188,213.364839 186.465267,223.971872 175.34805,229.391016 C174.283355,229.910007 161.394653,236.102406 147.685501,236.766194 C141.932356,237.044757 131.43599,235.208921 123.680665,231.516602 C115.623675,227.680659 110.383982,221.94574 108.80371,220.204102 C101.764672,212.446275 94.603701,196.355296 94.597656,191.159184" id="Collar" fill="#000000"></path>
                        <path d="M94.2483545,190.621206 C97.963892,198.390368 112.302122,215.440931 130.254882,220.204102 C149.415574,225.287757 172.368679,217.67144 180.243615,212.439845 C186.566479,208.239346 195.58474,199.538686 200.800726,187.710014 C208.167902,171.002927 212.233223,150.199483 212.233223,145.5 C208.990242,142.104663 192.048899,129.364922 175.394796,121.878741 C163.603637,116.578499 151.079885,116.147043 143.570399,117.256286 C134.21756,118.637813 112.063768,128.336412 101.226229,144.93531 C91.0719115,160.487777 91.825583,182.752962 94.262985,191.012754" id="Neck" fill="#E5C06D"></path>
                        <path d="M69.935547,105.688476 C69.287675,98.08744 69.8013565,82.6910635 74.1933595,68.2890615 C78.0369295,55.6854475 85.392162,43.9646913 90.355469,37.2871094 C100.990288,22.9791325 109.031251,17.0605468 118.713867,14.0302734 C128.396484,11 144.577149,16.3651849 152.544922,16.8193359 C160.512695,17.2734869 183.519973,12.9913044 194.113286,19.5000003 C204.706599,26.0086962 205.396713,26.5151263 212.574223,37.2871097 C219.751734,48.0590931 233.14636,87.956802 228.949223,109.205076 C227.223707,117.940613 221.537421,134.923887 210.371098,147.865233 C197.376736,162.925208 178.542095,173.433593 174.465821,173.433594 C166.886719,173.433595 88.262696,151.312499 88.262696,151.312499 C80.1328135,143.34765 71.1503905,119.941402 69.935547,105.688476 L69.935547,105.688476 Z" id="Head" fill="#E5C06D"></path>
                        <path d="M112.930664,112.811524 C112.930664,112.811524 103.532434,132.153544 97.7373045,137.448242 C90.3092975,144.234814 85.5,155.521039 85.5,167 C85.5,176.217878 87.355858,187.470619 95.7314455,190.978516 C104.107033,194.486413 109.474694,188.356446 122.617188,188.356446 C132.551323,188.356446 136.928711,200.476562 154.031339,197.484015 C165.299588,195.512344 176.904297,181.833985 174.689453,166.355469 C172.47461,150.876953 159.753914,131.988586 158.622071,128.467774 C156.38291,121.502443 156.34961,116.587891 156.34961,116.587891" id="Snout" fill="#E5C06D"></path>
                        <path d="M146.863651,197.882739 C135.421734,196.978339 130.995914,188.356446 122.617187,188.356446 C114.101604,188.356446 108.850127,190.929989 103.929569,191.78782 C103.57373,191.753418 110.350586,202.072265 123.080078,203.107422 C135.80957,204.142578 147.753174,197.821045 147.753174,197.821045" id="Mouth" fill="#E5C06D"></path>
                        <path d="M82.902912,80.97933 C81.1809725,82.5651835 79.639204,88.8349475 82.2289065,93.8307905 C83.6658015,96.602731 89.8872455,101.548688 96.9331325,102.266323 C104.214266,103.310117 110.105221,100.581434 111.298375,96.678802 C112.736847,91.973773 106.669274,85.460657 101.008301,81.1206055 C99.0663345,79.6317745 96.124138,79.099784 96.124138,79.099784 C90.6777975,78.11679 84.8086925,79.2241645 82.902912,80.97933 L82.902912,80.97933 Z" id="R_eye" fill="#F3E9D3" transform="translate(96.181071, 90.610977) rotate(-8.000000) translate(-96.181071, -90.610977) "></path>
                        <path d="M104.352907,83.615695 C102.829311,82.5144595 101.215429,81.5005785 99.6465505,80.6195695 C97.5162785,79.423308 94.5286765,79.306731 94.5286765,79.306731 C93.171579,79.254204 91.8067895,79.329048 90.4955295,79.501326 C88.416207,81.9403225 87,85.935111 87,90.427281 C87,94.376774 88.0947055,97.9417995 89.852745,100.473707 C92.299601,101.379282 95.404203,102.106496 98.5539565,101.987133 C99.670281,101.990194 100.742804,101.912194 101.76134,101.763669 C103.961643,99.2507815 105.5,95.109172 105.5,90.427281 C105.5,87.815894 105.021417,85.3725885 104.188945,83.284864" id="R_pupil" fill="#000000"></path>
                        <path d="M200.949298,92.2022925 C201.904779,94.3932505 200.215518,101.409367 194.194525,105.684592 C190.877677,108.039731 181.253106,111.195553 173.959813,110.0149 C166.822978,108.859575 162.355339,104.631959 162.355339,100.581849 C162.355339,94.0239905 176.378331,87.386504 182.096401,86.712842 C186.911134,86.145605 198.587432,86.7864375 200.949298,92.2022925 L200.949298,92.2022925 Z" id="L_eye" fill="#F3E9D3" transform="translate(181.777180, 98.407736) rotate(7.000000) translate(-181.777180, -98.407736) "></path>
                        <path d="M186.267583,109.105754 C188.243626,106.597339 189.495371,102.876728 189.495371,98.7238225 C189.495371,93.819995 187.750024,89.5189305 185.127744,87.1046995 C184.399084,87.0327355 183.927936,87.015731 183.507017,87.0137155 C181.219111,87.0027615 177.514805,87.748841 173.830912,89.0510465 C172.05369,91.4521475 170.995371,94.9052375 170.995371,98.7238225 C170.995371,102.805789 172.204717,106.470103 174.122532,108.976151 C177.935217,109.818379 182.715841,109.559251 186.65442,108.838538" id="L_pupil" fill="#000000" transform="translate(180.245371, 98.258164) rotate(-1.000000) translate(-180.245371, -98.258164) "></path>
                        <path d="M126.529028,174.692383 C136.774123,174.692383 146.490871,168.711317 149.146618,160.789998 C151.802366,152.86868 139.020378,143 126.529028,143 C114.037678,143 99.661892,151.896579 103.911438,160.789998 C108.160984,169.683418 116.283934,174.692383 126.529028,174.692383 L126.529028,174.692383 Z" id="Nose" fill="#000000"></path>
                        <path d="M24.1179045,60.1183685 C27.9048056,56.4853255 34.7357323,49.0211839 40.5830066,43.7871087 C44.6401786,40.1554092 54.730897,30.4231436 64.2841825,28.6630852 C72.757308,27.1020311 80.415143,32.8876733 89.224449,38.8398628 C84.3297445,45.6926935 77.7543815,56.6119635 74.1933595,68.2890615 C73.065052,71.9889405 72.192706,75.7544465 71.5302575,79.4365505 C71.513672,79.529297 56.0253215,69.964549 48.1914062,66.763672 C40.4771442,63.611684 24.0234375,60.0668945 24.0234375,60.0668945" id="R_ear_b" fill="#D4B263"></path>
                        <path d="M89.0146,39.1347113 C89.4769675,38.4827516 89.9252055,37.865981 90.355469,37.2871094 C98.4324715,26.4203925 105.013286,20.3928435 111.953435,16.7945113 C107.9502,11.7421878 95.7202815,6.09111765 88.9199245,3.94726567 C82.1195675,1.80341367 78.855205,-5.4183725 58.810547,10.4052735 C38.7658889,26.2289194 31.2003511,33.1724808 22.1191406,43.7871094 C14.5371092,52.6494135 14.3601195,51.676296 10.901367,54.3964835 C7.4426145,57.116671 1.97949223,57.8476555 0.560546875,60.7421875 C-1.00604615,63.9379085 1.30957032,66.8320315 7.0048826,66.8320305 C9.85167695,66.83203 16.3844988,66.121149 22.1191413,61.8837885 C24.884223,59.8406535 33.4628726,50.16056 40.5830066,43.7871087 C44.6401786,40.1554091 54.730897,30.4231436 64.2841825,28.6630852 C72.757308,27.1020311 80.415143,32.8876733 88.919922,38.7246094" id="R_ear" fill="#E5C06D"></path>
                        <path d="M229.746546,96.127546 C229.746546,96.127546 230.879883,93.3762205 234.054932,91.7319335 C237.229981,90.0876465 237.679443,90.338623 237.679443,90.338623 C236.385717,75.271886 232.364501,64.0387045 229.936169,56.7746565 C227.445934,49.3254376 226.742673,48.2481335 224.959607,46.7521954 C222.31285,44.5316487 216.038441,48.7023982 218.368897,47.7265644 C223.076509,60.445719 228.716774,79.864678 229.621166,95.7649665" id="L_ear_b" fill="#D4B263"></path>
                        <path d="M217.831054,47.8022461 C215.947502,43.2613192 214.119129,39.6056995 212.574223,37.2871097 C206.160021,27.6606971 204.65386,25.7487431 196.903808,20.9086914 C199.108997,18.6865253 202.713343,12.7448415 208.844372,10.3327618 C212.00648,9.08871985 216.628514,10.7277969 219.155895,11.6940899 C226.583629,14.5339336 228.166149,16.4196758 241.894176,25.6276836 C255.622204,34.8356915 268.658825,45.5529766 277.455212,52.3093245 C286.251599,59.065672 289.007458,62.0095195 289.901989,69.8894025 C290.79652,77.769285 287.25404,85.5715315 286.152965,88.8654765 C283.131597,97.9041245 275.368297,112.25366 263.509411,119.987058 C251.650524,127.720457 245.620251,129.711668 242.847301,129.711668 C240.074352,129.711668 238.555309,129.711668 236.831676,126.280027 C235.108044,122.848387 237.831676,117.130613 237.831676,98.213621 C237.831676,79.296629 232.786566,65.301256 229.936169,56.7746565 C227.445934,49.3254376 226.742673,48.2481335 224.959606,46.7521954 C222.31285,44.5316487 216.03844,48.7023982 218.368896,47.7265644" id="L_ear" fill="#E5C06D"></path>
                    </g>
                </g>
            </g>
        </g>
    </g>
</svg>